<?xml version="1.0" standalone="no"?>
<!DOCTYPE svg PUBLIC "-//W3C//DTD SVG 1.1//EN" "http://www.w3.org/Graphics/SVG/1.1/DTD/svg11.dtd">
<svg xmlns="http://www.w3.org/2000/svg">
<defs >
<font id="RedHatDisplay" horiz-adv-x="531" ><font-face
    font-family="Red Hat Display"
    units-per-em="1000"
    panose-1="2 1 5 3 4 2 1 6 3 3"
    ascent="1018"
    descent="-305"
    alphabetic="0" />
<glyph unicode=" " glyph-name="space" horiz-adv-x="215" />
<glyph unicode="!" glyph-name="exclam" horiz-adv-x="198" d="M69 194L60 717H137L128 194H69ZM99 -6Q78 -6 63 9T48 45Q48 66 63 81T99 96Q120 96 135 81T150 45Q150 24 135 9T99 -6Z" />
<glyph unicode="&quot;" glyph-name="quotedbl" horiz-adv-x="318" d="M69 497L58 701H133L122 497H69ZM197 497L186 701H261L250 497H197Z" />
<glyph unicode="#" glyph-name="numbersign" horiz-adv-x="692" d="M79 0L142 219H30V277H158L200 423H80V481H216L279 700H347L284 481H482L545 700H613L550 481H662V423H534L492 277H612V219H476L413 0H345L408 219H210L147 0H79ZM226 277H424L466 423H268L226 277Z" />
<glyph unicode="$" glyph-name="dollar" horiz-adv-x="567" d="M256 -75V21Q187 27 127 55T22 133L68 182Q107 140 155 114T256 81V327L221 334Q121 356 79 394T37 504Q37 583 98 632T256 682V759H307V680Q364 673 420 652T524 595L486 539Q440 571 395 590T307
616V385L341 378Q448 354 492 315T537 205Q537 126 473 75T307 19V-75H256ZM240 398L256 395V620Q189 619 148 589T106 510Q106 463 135 439T240 398ZM322 314L307 317V79Q376 83 421 117T466 202Q466 248 436 272T322 314Z" />
<glyph unicode="%" glyph-name="percent" horiz-adv-x="739" d="M176 345Q110 345 69 395T27 525Q27 605 68 655T176 705Q241 705 282 655T324 525Q323 445 282 395T176 345ZM176 391Q220 391 246 427T273 525Q273 586 247 623T176 660Q131 660 105 623T78 525Q79
464 105 428T176 391ZM203 0H142L535 700H597L203 0ZM566 -5Q500 -5 459 45T417 175Q417 255 458 305T566 355Q631 355 672 305T714 175Q713 95 672 45T566 -5ZM566 41Q610 41 636 77T663 175Q663 236 637 273T566 310Q521 310 495 273T468 175Q469 114 495 78T566
41Z" />
<glyph unicode="&amp;" glyph-name="ampersand" horiz-adv-x="653" d="M646 40L601 -13Q573 9 543 33T481 84Q438 38 381 14T257 -10Q153 -10 90 44T26 188Q26 248 57 293T162 378L181 389Q146 433 132 469T117 546Q117 616 165 663T286 710Q355 710 399 670T444
566Q444 517 417 478T332 405L282 375Q323 329 372 281T472 186Q497 226 513 274T540 374L608 363Q595 299 574 243T522 141Q554 113 586 88T646 40ZM187 547Q187 516 199 488T243 421L300 454Q337 476 355 503T374 564Q374 601 348 625T284 650Q242 650 215 622T187
547ZM96 190Q96 128 141 91T261 53Q310 53 354 72T432 128Q375 180 320 235T220 341L197 328Q143 297 120 265T96 190Z" />
<glyph unicode="&apos;" glyph-name="quotesingle" horiz-adv-x="191" d="M69 497L58 701H133L122 497H69Z" />
<glyph unicode="(" glyph-name="parenleft" horiz-adv-x="389" d="M64 249Q64 401 128 520T313 710L352 660Q248 600 192 492T135 249Q135 113 191 6T352 -162L313 -213Q193 -141 129 -22T64 249Z" />
<glyph unicode=")" glyph-name="parenright" horiz-adv-x="389" d="M325 254Q325 102 261 -17T76 -207L37 -157Q141 -97 197 11T254 254Q254 390 198 497T37 665L76 716Q196 644 260 525T325 254Z" />
<glyph unicode="*" glyph-name="asterisk" horiz-adv-x="446" d="M366 406L248 479L250 341H196L198 479L79 406L50 451L174 524L54 596L83 640L197 569L196 700H250L249 570L362 640L392 596L272 524L397 451L366 406Z" />
<glyph unicode="+" glyph-name="plus" horiz-adv-x="525" d="M294 145H231V327H55V389H231V567H294V389H470V327H294V145Z" />
<glyph unicode="," glyph-name="comma" horiz-adv-x="198" d="M76 74H156L76 -137H18L76 74Z" />
<glyph unicode="-" glyph-name="hyphen" horiz-adv-x="447" d="M49 314H398V248H49V314Z" />
<glyph unicode="." glyph-name="period" horiz-adv-x="198" d="M99 96Q120 96 135 81T150 45Q150 24 135 9T99 -6Q78 -6 63 9T48 45Q48 66 63 81T99 96Z" />
<glyph unicode="/" glyph-name="slash" horiz-adv-x="457" d="M-67 -205L354 700H429L7 -205H-67Z" />
<glyph unicode="0" glyph-name="zero" horiz-adv-x="661" d="M330 -10Q267 -10 215 16T125 90T66 204T45 350Q45 429 66 495T124 609T215 683T330 710Q393 710 445 684T536 610T595 496T616 350Q616 271 595 205T536 91T446 17T330 -10ZM330 56Q427 56 485 136T543
350Q543 484 485 564T330 645Q234 645 176 565T118 350Q118 216 176 136T330 56Z" />
<glyph unicode="1" glyph-name="one" horiz-adv-x="289" d="M219 700V0H146V623L28 571V638L172 700H219Z" />
<glyph unicode="2" glyph-name="two" horiz-adv-x="542" d="M37 0V54L302 309Q371 377 397 418T423 507Q423 567 378 606T263 645Q212 645 168 625T69 559L26 610Q83 660 142 684T264 709Q314 709 357 694T430 653T478 591T495 511Q495 480 489 453T466 399T421
340T350 267L137 64H508V0H37Z" />
<glyph unicode="3" glyph-name="three" horiz-adv-x="582" d="M532 191Q532 148 513 111T461 47T380 5T278 -10Q203 -10 138 15T22 89L71 137Q117 94 166 74T278 54Q357 54 407 93T458 193Q458 250 409 286T280 322H221V383H276Q342 383 386 422T431 520Q431 574
386 610T273 646Q217 646 172 627T80 561L31 610Q82 660 143 685T275 711Q324 711 366 697T439 657T486 598T504 522Q504 469 472 426T384 360Q450 341 491 296T532 191Z" />
<glyph unicode="4" glyph-name="four" horiz-adv-x="619" d="M498 700V250H582V187H498V0H425V187H27V245L420 700H498ZM117 250H425V607L117 250Z" />
<glyph unicode="5" glyph-name="five" horiz-adv-x="568" d="M65 355L81 700H492V636H143L133 407Q167 420 203 426T278 433Q389 433 459 373T529 219Q529 117 459 54T274 -10Q202 -10 139 14T25 85L71 134Q119 92 167 73T275 53Q355 53 405 98T455 216Q455 285
402 328T265 372Q226 372 187 364T108 340L65 355Z" />
<glyph unicode="6" glyph-name="six" horiz-adv-x="612" d="M328 -9Q266 -9 214 15T125 84T66 189T45 325Q45 412 68 483T134 605T237 682T370 710Q416 710 460 698T538 664L502 607Q471 625 436 634T367 644Q254 644 188 563T118 338Q157 384 214 411T331 438Q383
438 427 422T504 376T555 307T573 219Q573 170 555 128T504 56T426 8T328 -9ZM318 377Q263 377 211 350T121 273Q133 175 189 115T327 55Q401 55 450 101T499 217Q499 288 449 332T318 377Z" />
<glyph unicode="7" glyph-name="seven" horiz-adv-x="555" d="M92 0L457 635H15V700H540V644L176 0H92Z" />
<glyph unicode="8" glyph-name="eight" horiz-adv-x="615" d="M307 -10Q251 -10 203 5T120 46T66 109T46 189Q46 250 88 298T197 368Q142 389 108 432T74 529Q74 568 92 601T141 659T214 697T307 711Q357 711 400 697T474 659T523 602T541 529Q541 475 507 432T418
368Q485 347 527 299T569 189Q569 146 550 110T495 47T412 5T307 -10ZM307 400Q375 400 422 436T469 526Q469 579 423 616T307 653Q239 653 193 616T146 526Q146 473 192 437T307 400ZM307 50Q387 50 441 91T496 194Q496 254 442 295T307 336Q227 336 173 295T118
194Q118 133 172 92T307 50Z" />
<glyph unicode="9" glyph-name="nine" horiz-adv-x="612" d="M284 709Q346 709 398 685T487 616T546 511T567 375Q567 288 544 217T478 95T375 18T242 -10Q196 -10 152 2T74 36L110 93Q141 75 176 66T245 56Q358 56 424 137T494 362Q455 316 398 289T281 262Q229
262 185 278T108 324T57 393T39 481Q39 530 57 572T108 644T186 692T284 709ZM294 323Q349 323 401 350T491 427Q479 525 423 585T285 645Q211 645 162 599T113 483Q113 412 163 368T294 323Z" />
<glyph unicode=":" glyph-name="colon" horiz-adv-x="198" d="M99 96Q120 96 135 81T150 45Q150 24 135 9T99 -6Q78 -6 63 9T48 45Q48 66 63 81T99 96ZM99 512Q120 512 135 497T150 461Q150 440 135 425T99 410Q78 410 63 425T48 461Q48 482 63 497T99 512Z" />
<glyph unicode=";" glyph-name="semicolon" horiz-adv-x="201" d="M107 512Q128 512 143 497T158 461Q158 440 143 425T107 410Q86 410 71 425T56 461Q56 482 71 497T107 512ZM325 74H405L325 -137H267L325 74Z" />
<glyph unicode="&lt;" glyph-name="less" horiz-adv-x="505" d="M391 103L73 349L391 594L428 547L167 350L429 151L391 103Z" />
<glyph unicode="=" glyph-name="equal" horiz-adv-x="528" d="M470 562V500H55V562H470ZM470 469V407H55V469H470Z" />
<glyph unicode="&gt;" glyph-name="greater" horiz-adv-x="505" d="M114 594L432 348L114 103L77 150L338 347L76 546L114 594Z" />
<glyph unicode="?" glyph-name="question" horiz-adv-x="506" d="M349 363L315 339Q278 314 263 280T252 196H188Q184 264 202 307T270 385L314 416Q357 447 375 473T393 534Q393 580 351 611T248 642Q199 642 156 619T78 552L20 590Q63 647 123 677T252 708Q298
708 337 695T404 659T449 604T466 535Q466 484 441 447T349 363ZM220 96Q241 96 256 81T271 45Q271 24 256 9T220 -6Q199 -6 184 9T169 45Q169 66 184 81T220 96Z" />
<glyph unicode="@" glyph-name="at" horiz-adv-x="776" d="M357 51Q296 51 255 94T214 202Q214 239 227 271T263 327T317 365T383 379Q412 379 438 369T484 340L489 366H545L506 174Q499 138 513 119T562 99Q614 99 649 147T685 267Q685 324 663 372T603 456T512
512T398 532Q334 532 278 507T181 439T117 336T93 209Q93 143 116 86T181 -12T280 -76T406 -99Q452 -99 495 -89T576 -58L594 -99Q551 -121 503 -132T403 -144Q327 -144 261 -118T147 -44T72 67T44 207Q44 285 71 353T145 470T258 548T400 576Q470 576 531 553T637
488T707 391T733 269Q733 223 720 184T683 116T627 71T556 55Q524 55 500 66T463 96Q438 74 411 63T357 51ZM269 206Q269 158 297 128T369 98Q391 98 412 107T450 133Q449 143 449 154T452 179L473 285Q459 307 435 319T382 331Q336 331 303 294T269 206Z" />
<glyph unicode="A" glyph-name="A" horiz-adv-x="679" d="M4 0L295 700H388L675 0H591L503 220H173L84 0H4ZM200 286H476L339 628L200 286Z" />
<glyph unicode="B" glyph-name="B" horiz-adv-x="657" d="M77 700H361Q462 700 522 651T582 520Q582 466 554 426T475 365Q538 346 574 302T611 197Q611 107 546 54T373 0H77V700ZM357 633H154V395H357Q425 395 465 427T506 514Q506 568 466 600T357 633ZM367
67Q442 67 487 103T533 199Q533 259 488 295T367 331H154V67H367Z" />
<glyph unicode="C" glyph-name="C" horiz-adv-x="722" d="M409 60Q474 60 533 85T632 156L682 104Q630 50 558 20T407 -11Q331 -11 265 17T149 93T72 208T44 350Q44 425 72 491T149 606T264 683T407 711Q488 711 560 681T684 596L633 542Q592 588 532 614T407
640Q347 640 295 618T204 557T144 465T122 350Q122 289 144 236T204 144T295 83T409 60Z" />
<glyph unicode="D" glyph-name="D" horiz-adv-x="720" d="M77 0V700H308Q387 700 455 674T572 601T648 491T676 350Q676 274 649 210T573 99T456 27T308 0H77ZM312 630H154V70H312Q372 70 425 91T516 150T576 239T598 350Q598 409 576 460T516 549T425 608T312 630Z" />
<glyph unicode="E" glyph-name="E" horiz-adv-x="616" d="M77 0V700H578V632H154V387H431V320H154V68H582V0H77Z" />
<glyph unicode="F" glyph-name="F" horiz-adv-x="607" d="M77 0V700H578V632H154V382H432V315H154V0H77Z" />
<glyph unicode="G" glyph-name="G" horiz-adv-x="788" d="M746 335Q746 262 720 199T648 89T540 16T406 -11Q331 -11 265 17T150 94T73 209T44 350Q44 425 72 491T148 605T263 682T405 711Q486 711 558 681T681 596L629 543Q589 589 529 614T405 640Q345 640 293
618T204 557T144 465T122 350Q122 289 144 236T203 144T293 83T405 60Q458 60 504 78T585 127T642 203T668 298H417V366H746V335Z" />
<glyph unicode="H" glyph-name="H" horiz-adv-x="715" d="M77 0V700H154V387H561V700H638V0H561V318H154V0H77Z" />
<glyph unicode="I" glyph-name="I" horiz-adv-x="231" d="M77 0V700H154V0H77Z" />
<glyph unicode="J" glyph-name="J" horiz-adv-x="600" d="M537 264Q537 139 465 64T271 -11Q181 -11 115 36T17 168L87 197Q114 128 160 94T272 60Q357 60 408 116T460 265V700H537V264Z" />
<glyph unicode="K" glyph-name="K" horiz-adv-x="617" d="M77 0V700H154V368L516 700H617L237 357L625 0H517L154 336V0H77Z" />
<glyph unicode="L" glyph-name="L" horiz-adv-x="604" d="M77 0V700H154V69H571V0H77Z" />
<glyph unicode="M" glyph-name="M" horiz-adv-x="847" d="M423 50L149 611V0H77V700H185L424 203L662 700H770V0H697V612L423 50Z" />
<glyph unicode="N" glyph-name="N" horiz-adv-x="725" d="M77 700H154L575 132V700H648V0H580L150 583V0H77V700Z" />
<glyph unicode="O" glyph-name="O" horiz-adv-x="809" d="M765 350Q765 275 737 209T661 94T546 17T405 -11Q330 -11 264 17T149 93T72 208T44 350Q44 425 72 491T148 606T263 683T405 711Q480 711 546 683T660 607T737 492T765 350ZM687 350Q687 411 665 464T606
556T516 617T405 640Q345 640 293 618T204 557T144 465T122 350Q122 289 144 236T203 144T293 83T405 60Q464 60 516 82T605 144T665 236T687 350Z" />
<glyph unicode="P" glyph-name="P" horiz-adv-x="647" d="M77 0V700H381Q483 700 545 645T607 498Q607 407 545 351T381 295H154V0H77ZM375 631H154V362H375Q446 362 488 398T530 497Q530 559 488 595T375 631Z" />
<glyph unicode="Q" glyph-name="Q" horiz-adv-x="809" d="M765 350Q765 271 734 202T650 84L724 -5L645 -16L596 43Q555 18 506 4T405 -11Q330 -11 264 17T149 93T72 208T44 350Q44 425 72 491T148 606T263 683T405 711Q480 711 546 683T660 607T737 492T765 350ZM527
230L602 140Q642 180 664 234T687 350Q687 411 665 464T606 556T516 617T405 640Q345 640 293 618T204 557T144 465T122 350Q122 289 144 236T203 144T293 83T405 60Q445 60 481 70T548 99L448 218L527 230Z" />
<glyph unicode="R" glyph-name="R" horiz-adv-x="645" d="M77 0V700H377Q479 700 542 645T605 499Q605 430 565 380T456 311L613 0H528L378 301H154V0H77ZM372 631H154V366H372Q442 366 485 402T528 499Q528 559 485 595T372 631Z" />
<glyph unicode="S" glyph-name="S" horiz-adv-x="600" d="M11 120L62 173Q116 116 177 87T307 57Q389 57 442 96T495 195Q495 249 458 278T334 321L233 337Q132 353 84 396T36 514Q36 601 104 655T282 709Q355 709 427 685T558 616L514 556Q457 599 398 621T279
643Q204 643 158 609T111 520Q111 471 144 445T253 407L353 391Q467 372 519 326T572 199Q572 153 553 115T498 49T413 6T304 -10Q221 -10 145 23T11 120Z" />
<glyph unicode="T" glyph-name="T" horiz-adv-x="617" d="M17 631V700H600V631H347V0H270V631H17Z" />
<glyph unicode="U" glyph-name="U" horiz-adv-x="704" d="M641 296Q641 156 563 73T352 -11Q219 -11 141 72T63 296V700H140V296Q140 189 198 125T352 60Q448 60 506 124T564 296V700H641V296Z" />
<glyph unicode="V" glyph-name="V" horiz-adv-x="679" d="M291 0L4 700H87L340 72L597 700H675L384 0H291Z" />
<glyph unicode="W" glyph-name="W" horiz-adv-x="882" d="M264 0H186L35 700H113L232 122L405 700H480L653 124L773 700H848L697 0H619L442 593L264 0Z" />
<glyph unicode="X" glyph-name="X" horiz-adv-x="638" d="M93 0H3L273 363L20 700H114L319 422L524 700H614L364 364L635 0H542L318 305L93 0Z" />
<glyph unicode="Y" glyph-name="Y" horiz-adv-x="639" d="M281 0V285L3 700H93L322 353L550 700H637L358 282V0H281Z" />
<glyph unicode="Z" glyph-name="Z" horiz-adv-x="604" d="M24 0V55L469 632H28V700H570V645L123 68H578V0H24Z" />
<glyph unicode="[" glyph-name="bracketleft" horiz-adv-x="347" d="M309 -207H57V700H309V640H128V-147H309V-207Z" />
<glyph unicode="\" glyph-name="backslash" horiz-adv-x="462" d="M529 -205H451L30 700H107L529 -205Z" />
<glyph unicode="]" glyph-name="bracketright" horiz-adv-x="347" d="M38 700H290V-207H38V-147H219V640H38V700Z" />
<glyph unicode="^" glyph-name="asciicircum" horiz-adv-x="536" d="M49 350L236 700H301L488 350H419L268 635L117 350H49Z" />
<glyph unicode="_" glyph-name="underscore" horiz-adv-x="482" d="M483 -80V-137H-1V-80H483Z" />
<glyph unicode="`" glyph-name="grave" horiz-adv-x="519" d="M261 716L353 600H288L165 716H261Z" />
<glyph unicode="a" glyph-name="a" horiz-adv-x="516" d="M221 -9Q139 -9 88 33T36 142Q36 212 90 253T236 295Q276 295 313 286T383 261V327Q383 387 349 417T250 448Q213 448 176 438T93 404L65 461Q119 487 165 499T257 511Q352 511 403 466T455 337V0H383V49Q349
20 309 6T221 -9ZM107 144Q107 102 142 76T234 49Q279 49 316 63T383 107V201Q352 222 317 231T238 241Q178 241 143 215T107 144Z" />
<glyph unicode="b" glyph-name="b" horiz-adv-x="590" d="M550 251Q550 197 531 149T477 67T397 12T297 -8Q253 -8 212 7T136 50V0H63V700L137 717V448Q168 478 209 493T298 509Q351 509 397 489T477 435T530 353T550 251ZM291 444Q244 444 204 426T137 374V126Q163
94 204 76T291 57Q370 57 423 112T477 250Q477 291 463 326T423 388T364 429T291 444Z" />
<glyph unicode="c" glyph-name="c" horiz-adv-x="513" d="M297 58Q337 58 374 74T443 121L489 71Q449 33 399 12T295 -9Q242 -9 195 11T114 66T60 149T40 251Q40 305 60 352T114 435T195 490T295 511Q349 511 400 490T491 432L444 378Q414 409 375 426T296 443Q258
443 224 428T166 387T127 326T113 251Q113 210 127 175T166 114T225 73T297 58Z" />
<glyph unicode="d" glyph-name="d" horiz-adv-x="590" d="M454 0V53Q422 23 381 8T292 -8Q239 -8 193 12T113 66T60 149T40 251Q40 305 59 352T113 434T193 489T293 509Q336 509 377 495T453 452V700L527 717V0H454ZM113 252Q113 211 127 175T167 113T226 72T299
57Q346 57 386 75T453 127V375Q427 407 386 425T299 444Q221 444 167 389T113 252Z" />
<glyph unicode="e" glyph-name="e" horiz-adv-x="564" d="M485 53Q443 22 398 7T298 -9Q244 -9 197 11T115 66T60 148T40 251Q40 305 59 352T112 434T190 489T287 509Q337 509 380 489T455 434T505 352T524 251V228H113Q121 154 174 105T301 56Q340 56 377 68T439
102L485 53ZM285 444Q220 444 173 400T115 287H450Q440 353 394 398T285 444Z" />
<glyph unicode="f" glyph-name="f" horiz-adv-x="374" d="M17 501H135V596Q135 669 175 708T290 748Q310 748 326 746T357 739V673Q340 678 326 680T295 683Q251 683 230 662T208 594V501H357V438H208V0H135V438H17V501Z" />
<glyph unicode="g" glyph-name="g" horiz-adv-x="586" d="M290 -4Q238 -4 193 16T113 70T60 152T40 253Q40 307 59 354T113 435T193 490T292 510Q335 510 375 495T450 451V501H523V-12Q523 -108 467 -159T307 -211Q255 -211 204 -198T111 -159L143 -101Q188 -125
226 -136T304 -147Q375 -147 412 -113T449 -13V54Q415 26 375 11T290 -4ZM113 253Q113 213 127 178T165 117T224 76T296 61Q344 61 384 79T449 130V376Q424 408 384 426T296 444Q257 444 224 430T166 389T127 328T113 253Z" />
<glyph unicode="h" glyph-name="h" horiz-adv-x="549" d="M63 0V700L137 717V442Q166 476 206 493T295 511Q380 511 434 457T488 317V0H415V302Q415 368 377 407T275 446Q230 446 195 426T137 369V0H63Z" />
<glyph unicode="i" glyph-name="i" horiz-adv-x="200" d="M100 597Q80 597 65 612T50 647Q50 668 65 682T100 697Q121 697 135 683T150 647Q150 627 136 612T100 597ZM137 501V0H63V501H137Z" />
<glyph unicode="j" glyph-name="j" horiz-adv-x="200" d="M100 597Q80 597 65 612T50 647Q50 668 65 682T100 697Q121 697 135 683T150 647Q150 627 136 612T100 597ZM8 -208Q-6 -208 -18 -206T-38 -202V-140Q-29 -142 -21 -143T-1 -144Q33 -144 48 -128T63 -76V501H137V-82Q137
-142 103 -175T8 -208Z" />
<glyph unicode="k" glyph-name="k" horiz-adv-x="494" d="M63 0V700L137 717V275L399 501H489L214 263L502 0H401L137 240V0H63Z" />
<glyph unicode="l" glyph-name="l" horiz-adv-x="200" d="M137 717V0H63V700L137 717Z" />
<glyph unicode="m" glyph-name="m" horiz-adv-x="859" d="M63 0V501H137V446Q165 478 202 494T284 511Q336 511 377 487T442 420Q473 466 516 488T614 511Q695 511 746 457T798 317V0H725V302Q725 368 690 407T595 446Q554 446 520 425T462 364Q464 353 465 342T467
317V0H394V302Q394 368 359 407T265 446Q225 446 193 428T137 373V0H63Z" />
<glyph unicode="n" glyph-name="n" horiz-adv-x="549" d="M63 0V501H137V442Q166 476 206 493T295 511Q380 511 434 457T488 317V0H415V302Q415 368 377 407T275 446Q230 446 195 426T137 369V0H63Z" />
<glyph unicode="o" glyph-name="o" horiz-adv-x="591" d="M40 251Q40 305 60 353T114 436T196 491T296 511Q349 511 395 491T476 436T531 353T551 251Q551 196 531 148T477 65T396 10T296 -10Q243 -10 196 10T115 65T60 148T40 251ZM296 56Q334 56 367 71T425
112T464 174T478 251Q478 292 464 327T426 389T368 430T296 445Q258 445 225 430T167 389T128 328T113 251Q113 210 127 175T165 113T224 71T296 56Z" />
<glyph unicode="p" glyph-name="p" horiz-adv-x="590" d="M63 -205V501H136V447Q168 478 209 493T298 509Q351 509 397 489T477 435T530 353T550 251Q550 197 531 149T477 67T397 12T297 -8Q253 -8 212 7T137 50V-205H63ZM291 444Q244 444 204 426T137 374V126Q163
94 204 76T291 57Q370 57 423 112T477 250Q477 291 463 326T423 388T364 429T291 444Z" />
<glyph unicode="q" glyph-name="q" horiz-adv-x="590" d="M292 -8Q239 -8 193 12T113 66T60 149T40 251Q40 305 59 352T113 434T193 489T293 509Q338 509 379 494T454 452V501H527V-205H453V52Q421 23 380 8T292 -8ZM113 252Q113 211 127 175T167 113T226 72T299
57Q346 57 386 75T453 127V375Q427 407 386 425T299 444Q221 444 167 389T113 252Z" />
<glyph unicode="r" glyph-name="r" horiz-adv-x="346" d="M63 0V501H137V430Q159 469 195 490T277 512Q291 512 302 511T324 505V437Q311 441 298 443T272 446Q226 446 191 420T137 343V0H63Z" />
<glyph unicode="s" glyph-name="s" horiz-adv-x="446" d="M12 69L57 117Q91 85 133 68T220 50Q280 50 318 75T356 140Q356 172 334 190T263 216L176 228Q101 239 65 272T28 363Q28 426 81 467T216 509Q270 509 318 493T413 443L374 393Q332 421 293 435T212 449Q161
449 129 426T96 366Q96 334 118 317T189 292L276 280Q351 270 388 236T426 144Q426 112 411 84T368 35T303 3T223 -9Q161 -9 107 11T12 69Z" />
<glyph unicode="t" glyph-name="t" horiz-adv-x="365" d="M125 112V438H17V501H125V628L198 647V501H349V438H198V131Q198 91 216 74T275 56Q296 56 312 59T348 69V4Q329 -3 306 -6T260 -9Q195 -9 160 22T125 112Z" />
<glyph unicode="u" glyph-name="u" horiz-adv-x="549" d="M134 501V199Q134 133 172 94T274 55Q319 55 354 75T412 133V501H486V0H412V58Q383 24 344 7T255 -10Q169 -10 115 44T61 184V501H134Z" />
<glyph unicode="v" glyph-name="v" horiz-adv-x="513" d="M222 0L5 501H87L258 96L429 501H508L292 0H222Z" />
<glyph unicode="w" glyph-name="w" horiz-adv-x="703" d="M227 0H155L14 501H87L195 101L320 501H386L510 101L619 501H689L547 0H476L352 401L227 0Z" />
<glyph unicode="x" glyph-name="x" horiz-adv-x="491" d="M5 0L202 258L15 501H103L245 313L387 501H472L287 259L485 0H397L244 204L89 0H5Z" />
<glyph unicode="y" glyph-name="y" horiz-adv-x="510" d="M180 -65L209 1L5 501H87L249 90L424 501H504L255 -75Q223 -147 184 -179T85 -211Q71 -211 59 -210T38 -206V-139Q48 -141 57 -142T80 -143Q114 -143 138 -124T180 -65Z" />
<glyph unicode="z" glyph-name="z" horiz-adv-x="463" d="M31 0V58L333 435H34V501H423V444L120 66H426V0H31Z" />
<glyph unicode="{" glyph-name="braceleft" horiz-adv-x="382" d="M250 89L202 -31Q180 -82 198 -117T265 -152Q281 -152 295 -150T327 -141L342 -197Q320 -205 301 -208T262 -212Q218 -212 187 -197T138 -155T121 -92T138 -14L180 85Q204 140 183 179T107 218H28V279H107Q161
279 182 318T180 413L138 511Q120 552 121 588T138 652T186 694T262 710Q282 710 301 707T342 695L327 639Q310 645 296 647T265 650Q216 650 198 615T202 529L250 409Q272 355 249 310T171 249Q226 233 249 188T250 89Z" />
<glyph unicode="|" glyph-name="bar" horiz-adv-x="274" d="M103 -206V700H171V-206H103Z" />
<glyph unicode="}" glyph-name="braceright" horiz-adv-x="382" d="M132 409L180 529Q202 580 184 615T117 650Q101 650 87 648T55 639L40 695Q62 703 81 706T120 710Q164 710 195 695T244 653T261 590T244 512L202 413Q178 358 199 319T275 280H354V219H275Q221
219 200 180T202 85L244 -13Q262 -54 261 -90T244 -154T196 -196T120 -212Q100 -212 81 -209T40 -197L55 -141Q72 -147 86 -149T117 -152Q166 -152 184 -117T180 -31L132 89Q110 143 133 188T211 249Q156 265 133 310T132 409Z" />
<glyph unicode="~" glyph-name="asciitilde" horiz-adv-x="578" d="M260 425L340 385Q364 373 379 368T407 363Q438 363 456 385T482 454L538 447Q530 378 496 340T411 301Q392 301 369 307T318 329L238 369Q212 382 198 387T171 392Q140 392 122 370T97 301L40
308Q49 377 82 415T167 454Q187 454 209 448T260 425Z" />
<glyph unicode="&#xa0;" glyph-name="nbspace" horiz-adv-x="215" />
<glyph unicode="&#xa1;" glyph-name="exclamdown" horiz-adv-x="198" d="M129 510L138 -13H61L70 510H129ZM99 710Q120 710 135 695T150 659Q150 638 135 623T99 608Q78 608 63 623T48 659Q48 680 63 695T99 710Z" />
<glyph unicode="&#xa2;" glyph-name="cent" horiz-adv-x="515" d="M263 -110V-7Q216 -1 175 21T104 77T57 156T40 251Q40 301 57 345T104 424T175 480T263 509V617H314V510Q363 507 409 487T491 432L444 378Q417 406 384 422T314 442V59Q349 62 382 77T443 121L489
71Q453 37 408 16T314 -8V-110H263ZM113 251Q113 179 156 126T263 61V440Q198 428 156 375T113 251Z" />
<glyph unicode="&#xa3;" glyph-name="sterling" horiz-adv-x="615" d="M201 27Q191 29 181 30T162 31Q127 31 103 15T62 -37L8 -1Q33 44 66 67T144 94Q157 104 163 120T170 157Q170 160 170 165T167 185T159 230T145 312H40V369H135Q123 436 120 460T117 499Q117
595 174 652T332 709Q421 709 478 665T556 535L492 516Q477 579 436 612T332 646Q263 646 226 608T188 502Q188 496 188 489T191 467T197 430T207 369H417V312H217Q225 267 229 240T236 199T239 178T240 167Q240 142 234 123T214 89L413 49Q424 47 434 46T455 44Q487
44 510 58T549 104L604 69Q578 24 542 2T457 -20Q444 -20 430 -19T400 -14L201 27Z" />
<glyph unicode="&#xa4;" glyph-name="uni00A4" horiz-adv-x="681" d="M85 64L46 104L139 198Q114 231 100 273T85 361Q85 407 99 448T140 523L46 618L86 659L180 564Q213 591 254 606T341 621Q387 621 428 606T502 564L596 659L635 619L540 524Q566 491 581 450T596
361Q596 315 582 274T542 199L636 104L596 63L502 157Q469 130 428 115T341 100Q295 100 253 115T178 158L85 64ZM341 166Q379 166 412 181T470 222T509 284T523 361Q523 402 509 437T471 499T413 540T341 555Q303 555 270 540T212 499T173 438T158 361Q158 320
172 285T210 223T269 181T341 166Z" />
<glyph unicode="&#xa5;" glyph-name="yen" horiz-adv-x="641" d="M94 210H281V285L280 287H94V339H245L3 700H93L322 353L550 700H637L396 339H546V287H361L358 282V210H546V159H358V0H281V159H94V210Z" />
<glyph unicode="&#xa6;" glyph-name="uni00A6" horiz-adv-x="274" d="M171 287H103V700H171V287ZM103 -206V207H171V-206H103Z" />
<glyph unicode="&#xa7;" glyph-name="section" horiz-adv-x="566" d="M452 86Q452 25 405 -12T280 -50Q237 -50 191 -38T101 -2L130 51Q173 29 210 17T280 5Q329 5 356 26T384 84Q384 112 366 132T308 165L198 201Q122 226 91 258T59 345Q59 392 87 425T163 472Q138
491 126 516T113 573Q113 634 160 672T286 710Q329 710 375 697T465 661L435 608Q394 631 356 643T285 655Q236 655 209 634T181 576Q181 547 199 528T258 495L367 459Q443 434 475 401T507 314Q507 268 479 235T402 187Q427 168 439 143T452 86ZM329 223Q332 222
334 221T340 219Q387 224 414 248T442 309Q442 340 421 361T351 399L236 436Q233 437 231 438T226 440Q178 435 151 411T123 350Q123 319 144 298T214 260L329 223Z" />
<glyph unicode="&#xa8;" glyph-name="dieresis" horiz-adv-x="538" d="M182 610Q161 610 147 624T132 659Q132 679 146 693T182 707Q203 707 217 693T231 659Q231 638 217 624T182 610ZM357 610Q336 610 322 624T308 659Q308 679 322 693T357 707Q379 707 392
693T406 659Q406 638 392 624T357 610Z" />
<glyph unicode="&#xa9;" glyph-name="copyright" horiz-adv-x="804" d="M44 350Q44 426 71 492T147 606T261 683T402 711Q477 711 543 683T657 607T732 493T760 350Q760 274 733 208T657 93T543 17T402 -11Q327 -11 261 17T147 93T72 208T44 350ZM714 350Q714
416 690 474T623 575T524 643T402 668Q337 668 281 643T182 576T116 475T92 350Q92 284 116 226T182 125T280 57T402 32Q467 32 524 57T623 124T689 225T714 350ZM232 350Q232 388 246 422T284 481T342 520T413 535Q453 535 489 520T553 477L517 437Q496 459 469
471T414 483Q361 483 325 445T289 350Q289 294 325 256T414 218Q442 218 468 229T516 262L552 223Q524 195 489 181T413 166Q375 166 342 180T285 219T246 278T232 350Z" />
<glyph unicode="&#xaa;" glyph-name="ordfeminine" horiz-adv-x="408" d="M173 315Q111 315 72 346T33 429Q33 482 74 513T186 544Q214 544 241 538T293 521V567Q293 610 269 632T196 654Q169 654 141 646T78 622L55 669Q96 688 132 697T203 707Q275 707 314 672T354
574V322H293V357Q268 336 238 326T173 315ZM93 431Q93 400 118 382T185 363Q217 363 244 373T293 402V473Q271 487 245 493T188 500Q145 500 119 481T93 431Z" />
<glyph unicode="&#xab;" glyph-name="guillemotleft" horiz-adv-x="598" d="M344 501L116 253L347 0H265L31 251L265 501H344ZM552 501L324 253L555 0H473L239 251L473 501H552Z" />
<glyph unicode="&#xac;" glyph-name="uni00AC" horiz-adv-x="547" d="M49 314H498V0H432V248H49V314Z" />
<glyph unicode="&#xad;" glyph-name="uni00AD" horiz-adv-x="447" d="M49 314H398V248H49V314Z" />
<glyph unicode="&#xae;" glyph-name="registered" horiz-adv-x="489" d="M244 311Q202 311 166 326T103 369T61 433T45 512Q45 554 60 591T102 655T165 697T244 713Q286 713 322 698T386 655T428 591T444 512Q444 470 429 433T386 369T323 327T244 311ZM244 345Q315
345 361 392T407 512Q407 584 361 631T244 679Q175 679 129 632T82 512Q82 441 128 393T244 345ZM178 419V607H252Q282 607 299 592T316 550Q316 533 307 519T281 497L327 419H290L248 490H212V419H178ZM248 579H212V516H247Q263 516 272 524T282 548Q282 563 273
571T248 579Z" />
<glyph unicode="&#xaf;" glyph-name="overscore" horiz-adv-x="519" d="M405 674V621H122V674H405Z" />
<glyph unicode="&#xb0;" glyph-name="degree" horiz-adv-x="388" d="M195 424Q135 424 93 466T51 569Q51 627 93 668T195 710Q252 710 294 669T337 569Q337 509 295 467T195 424ZM195 473Q232 473 259 501T286 570Q286 607 259 634T195 661Q157 661 130 634T102
570Q102 530 129 502T195 473Z" />
<glyph unicode="&#xb1;" glyph-name="plusminus" horiz-adv-x="525" d="M294 173H231V350H55V412H231V585H294V412H470V350H294V173ZM470 60V-1H55V60H470Z" />
<glyph unicode="&#xb2;" glyph-name="twosuperior" horiz-adv-x="291" d="M26 350V388L162 513Q190 541 202 559T214 598Q214 625 194 642T142 660Q117 660 95 650T46 617L17 652Q46 678 77 691T143 705Q196 705 230 676T265 602Q265 571 250 546T195 483L98 394H270V350H26Z"
/>
<glyph unicode="&#xb3;" glyph-name="threesuperior" horiz-adv-x="313" d="M285 446Q285 402 247 374T151 345Q112 345 78 358T18 397L53 430Q75 408 97 399T151 390Q188 390 210 406T232 450Q232 474 211 488T154 503H123V545H150Q180 545 200 562T220 605Q220
629 200 644T149 660Q121 660 100 650T57 618L22 651Q47 677 80 691T151 706Q203 706 238 679T272 609Q273 583 258 562T215 528Q246 518 265 497T285 446Z" />
<glyph unicode="&#xb4;" glyph-name="acute" horiz-adv-x="519" d="M261 716H356L232 600H167L261 716Z" />
<glyph unicode="&#xb5;" glyph-name="uni00B5" horiz-adv-x="549" d="M134 501V199Q134 133 172 94T274 55Q319 55 354 75T412 133V501H486V0H412V58Q383 24 344 7T255 -10Q220 -10 189 -1T134 27V-205H61V501H134Z" />
<glyph unicode="&#xb6;" glyph-name="paragraph" horiz-adv-x="651" d="M318 0V289H259Q161 289 100 346T38 494Q38 586 99 643T258 700H574V0H505V289H386V0H318ZM505 352V637H386V352H505ZM259 352H318V637H259Q192 637 151 598T109 495Q109 430 150 391T259 352Z" />
<glyph unicode="&#xb7;" glyph-name="middot" horiz-adv-x="198" d="M99 333Q120 333 135 318T150 282Q150 261 135 246T99 231Q78 231 63 246T48 282Q48 303 63 318T99 333Z" />
<glyph unicode="&#xb8;" glyph-name="cedilla" horiz-adv-x="519" d="M393 -137Q393 -177 361 -202T278 -228Q245 -228 216 -218T165 -187L195 -155Q214 -171 235 -179T278 -187Q308 -187 325 -174T342 -138Q342 -116 324 -104T273 -91H244L270 0H313L298 -55Q341
-57 367 -79T393 -137Z" />
<glyph unicode="&#xb9;" glyph-name="onesuperior" horiz-adv-x="165" d="M135 700V350H83V646L20 620V665L102 700H135Z" />
<glyph unicode="&#xba;" glyph-name="ordmasculine" horiz-adv-x="464" d="M36 510Q36 551 51 587T92 649T154 691T230 707Q271 707 306 692T368 650T409 587T424 510Q424 469 409 434T368 372T307 330T230 314Q190 314 155 329T93 371T51 433T36 510ZM364 510Q364
570 326 611T230 652Q175 652 137 611T98 510Q98 451 136 410T230 369Q287 369 325 410T364 510Z" />
<glyph unicode="&#xbb;" glyph-name="guillemotright" horiz-adv-x="598" d="M254 0L482 248L251 501H333L567 250L333 0H254ZM45 0L273 248L42 501H124L358 250L124 0H45Z" />
<glyph unicode="&#xbc;" glyph-name="onequarter" horiz-adv-x="603" d="M544 350V132H587V88H544V0H492V88H294V130L486 350H544ZM355 132H492V289L355 132ZM135 700V350H83V646L20 620V665L102 700H135ZM99 0H38L431 700H493L99 0Z" />
<glyph unicode="&#xbd;" glyph-name="onehalf" horiz-adv-x="637" d="M135 700V350H83V646L20 620V665L102 700H135ZM99 0H38L431 700H493L99 0ZM372 0V38L508 163Q536 191 548 209T560 248Q560 275 540 292T488 310Q463 310 441 300T392 267L363 302Q392 328
423 341T489 355Q542 355 576 326T611 252Q611 221 596 196T541 133L444 44H616V0H372Z" />
<glyph unicode="&#xbe;" glyph-name="threequarters" horiz-adv-x="697" d="M285 446Q285 402 247 374T151 345Q112 345 78 358T18 397L53 430Q75 408 97 399T151 390Q188 390 210 406T232 450Q232 474 211 488T154 503H123V545H150Q180 545 200 562T220 605Q220
629 200 644T149 660Q121 660 100 650T57 618L22 651Q47 677 80 691T151 706Q203 706 238 679T272 609Q273 583 258 562T215 528Q246 518 265 497T285 446ZM638 350V132H681V88H638V0H586V88H388V130L580 350H638ZM449 132H586V289L449 132ZM193 0H132L525 700H587L193
0Z" />
<glyph unicode="&#xbf;" glyph-name="questiondown" horiz-adv-x="506" d="M152 340L186 364Q223 389 238 423T249 507H313Q317 439 299 396T231 318L187 287Q144 256 126 230T108 169Q108 123 150 92T253 61Q302 61 345 84T423 151L481 113Q438 56 378 26T249
-5Q203 -5 164 8T97 44T52 99T35 168Q35 219 60 256T152 340ZM281 607Q260 607 245 622T230 658Q230 679 245 694T281 709Q302 709 317 694T332 658Q332 637 317 622T281 607Z" />
<glyph unicode="&#xc0;" glyph-name="Agrave" horiz-adv-x="679" d="M4 0L295 700H388L675 0H591L503 220H173L84 0H4ZM200 286H476L339 628L200 286ZM299 915L391 799H326L203 915H299Z" />
<glyph unicode="&#xc1;" glyph-name="Aacute" horiz-adv-x="679" d="M4 0L295 700H388L675 0H591L503 220H173L84 0H4ZM200 286H476L339 628L200 286ZM380 915H475L351 799H286L380 915Z" />
<glyph unicode="&#xc2;" glyph-name="Acircumflex" horiz-adv-x="679" d="M4 0L295 700H388L675 0H591L503 220H173L84 0H4ZM200 286H476L339 628L200 286ZM423 795L339 875L256 795H196L300 916H380L484 795H423Z" />
<glyph unicode="&#xc3;" glyph-name="Atilde" horiz-adv-x="679" d="M4 0L295 700H388L675 0H591L503 220H173L84 0H4ZM200 286H476L339 628L200 286ZM228 793L176 803Q187 853 210 878T270 903Q290 903 309 895T347 876T382 857T415 848Q432 848 442 861T460
905L511 895Q501 845 477 820T417 795Q397 795 378 803T341 822T305 841T272 850Q254 850 244 837T228 793Z" />
<glyph unicode="&#xc4;" glyph-name="Adieresis" horiz-adv-x="679" d="M4 0L295 700H388L675 0H591L503 220H173L84 0H4ZM200 286H476L339 628L200 286ZM253 809Q232 809 218 823T203 858Q203 878 217 892T253 906Q274 906 288 892T302 858Q302 837 288 823T253
809ZM428 809Q407 809 393 823T379 858Q379 878 393 892T428 906Q450 906 463 892T477 858Q477 837 463 823T428 809Z" />
<glyph unicode="&#xc5;" glyph-name="Aring" horiz-adv-x="679" d="M4 0L295 700H388L675 0H591L503 220H173L84 0H4ZM200 286H476L339 628L200 286ZM340 781Q293 781 261 814T228 893Q228 939 260 971T340 1003Q386 1003 418 971T451 893Q451 847 419 814T340
781ZM340 822Q368 822 388 842T408 893Q408 921 388 941T340 962Q311 962 291 942T271 893Q271 862 291 842T340 822Z" />
<glyph unicode="&#xc6;" glyph-name="AE" horiz-adv-x="953" d="M4 0L295 700H919V632H418L517 387H778V320H544L645 68H919V0H591L503 220H173L84 0H4ZM200 286H476L339 628L200 286Z" />
<glyph unicode="&#xc7;" glyph-name="Ccedilla" horiz-adv-x="722" d="M409 60Q474 60 533 85T632 156L682 104Q633 53 566 23T425 -11L413 -55Q456 -57 482 -79T508 -137Q508 -177 476 -202T393 -228Q360 -228 331 -218T280 -187L310 -155Q329 -171 350 -179T393
-187Q423 -187 440 -174T457 -138Q457 -116 439 -104T388 -91H359L382 -10Q310 -6 248 24T141 102T70 214T44 350Q44 425 72 491T149 606T264 683T407 711Q488 711 560 681T684 596L633 542Q592 588 532 614T407 640Q347 640 295 618T204 557T144 465T122 350Q122
289 144 236T204 144T295 83T409 60Z" />
<glyph unicode="&#xc8;" glyph-name="Egrave" horiz-adv-x="616" d="M77 0V700H578V632H154V387H431V320H154V68H582V0H77ZM300 915L392 799H327L204 915H300Z" />
<glyph unicode="&#xc9;" glyph-name="Eacute" horiz-adv-x="616" d="M77 0V700H578V632H154V387H431V320H154V68H582V0H77ZM380 915H475L351 799H286L380 915Z" />
<glyph unicode="&#xca;" glyph-name="Ecircumflex" horiz-adv-x="616" d="M77 0V700H578V632H154V387H431V320H154V68H582V0H77ZM424 795L340 875L257 795H197L301 916H381L485 795H424Z" />
<glyph unicode="&#xcb;" glyph-name="Edieresis" horiz-adv-x="616" d="M77 0V700H578V632H154V387H431V320H154V68H582V0H77ZM253 809Q232 809 218 823T203 858Q203 878 217 892T253 906Q274 906 288 892T302 858Q302 837 288 823T253 809ZM428 809Q407 809 393
823T379 858Q379 878 393 892T428 906Q450 906 463 892T477 858Q477 837 463 823T428 809Z" />
<glyph unicode="&#xcc;" glyph-name="Igrave" horiz-adv-x="231" d="M77 0V700H154V0H77ZM75 915L167 799H102L-21 915H75Z" />
<glyph unicode="&#xcd;" glyph-name="Iacute" horiz-adv-x="231" d="M77 0V700H154V0H77ZM155 915H250L126 799H61L155 915Z" />
<glyph unicode="&#xce;" glyph-name="Icircumflex" horiz-adv-x="231" d="M77 0V700H154V0H77ZM199 795L115 875L32 795H-28L76 916H156L260 795H199Z" />
<glyph unicode="&#xcf;" glyph-name="Idieresis" horiz-adv-x="231" d="M77 0V700H154V0H77ZM28 809Q7 809 -7 823T-22 858Q-22 878 -8 892T28 906Q49 906 63 892T77 858Q77 837 63 823T28 809ZM203 809Q182 809 168 823T154 858Q154 878 168 892T203 906Q225
906 238 892T252 858Q252 837 238 823T203 809Z" />
<glyph unicode="&#xd0;" glyph-name="Eth" horiz-adv-x="744" d="M100 0V317H13V383H100V700H331Q410 700 478 674T595 601T671 491T699 350Q699 274 672 210T596 99T479 27T331 0H100ZM335 630H177V383H366V317H177V70H335Q395 70 448 91T539 150T599 239T621
350Q621 409 599 460T539 549T448 608T335 630Z" />
<glyph unicode="&#xd1;" glyph-name="Ntilde" horiz-adv-x="725" d="M77 700H154L575 132V700H648V0H580L150 583V0H77V700ZM251 793L199 803Q210 853 233 878T293 903Q313 903 332 895T370 876T405 857T438 848Q455 848 465 861T483 905L534 895Q524 845 500
820T440 795Q420 795 401 803T364 822T328 841T295 850Q277 850 267 837T251 793Z" />
<glyph unicode="&#xd2;" glyph-name="Ograve" horiz-adv-x="809" d="M765 350Q765 275 737 209T661 94T546 17T405 -11Q330 -11 264 17T149 93T72 208T44 350Q44 425 72 491T148 606T263 683T405 711Q480 711 546 683T660 607T737 492T765 350ZM687 350Q687 411
665 464T606 556T516 617T405 640Q345 640 293 618T204 557T144 465T122 350Q122 289 144 236T203 144T293 83T405 60Q464 60 516 82T605 144T665 236T687 350ZM364 915L456 799H391L268 915H364Z" />
<glyph unicode="&#xd3;" glyph-name="Oacute" horiz-adv-x="809" d="M765 350Q765 275 737 209T661 94T546 17T405 -11Q330 -11 264 17T149 93T72 208T44 350Q44 425 72 491T148 606T263 683T405 711Q480 711 546 683T660 607T737 492T765 350ZM687 350Q687 411
665 464T606 556T516 617T405 640Q345 640 293 618T204 557T144 465T122 350Q122 289 144 236T203 144T293 83T405 60Q464 60 516 82T605 144T665 236T687 350ZM445 915H540L416 799H351L445 915Z" />
<glyph unicode="&#xd4;" glyph-name="Ocircumflex" horiz-adv-x="809" d="M765 350Q765 275 737 209T661 94T546 17T405 -11Q330 -11 264 17T149 93T72 208T44 350Q44 425 72 491T148 606T263 683T405 711Q480 711 546 683T660 607T737 492T765 350ZM687 350Q687
411 665 464T606 556T516 617T405 640Q345 640 293 618T204 557T144 465T122 350Q122 289 144 236T203 144T293 83T405 60Q464 60 516 82T605 144T665 236T687 350ZM488 795L404 875L321 795H261L365 916H445L549 795H488Z" />
<glyph unicode="&#xd5;" glyph-name="Otilde" horiz-adv-x="809" d="M765 350Q765 275 737 209T661 94T546 17T405 -11Q330 -11 264 17T149 93T72 208T44 350Q44 425 72 491T148 606T263 683T405 711Q480 711 546 683T660 607T737 492T765 350ZM687 350Q687 411
665 464T606 556T516 617T405 640Q345 640 293 618T204 557T144 465T122 350Q122 289 144 236T203 144T293 83T405 60Q464 60 516 82T605 144T665 236T687 350ZM293 793L241 803Q252 853 275 878T335 903Q355 903 374 895T412 876T447 857T480 848Q497 848 507
861T525 905L576 895Q566 845 542 820T482 795Q462 795 443 803T406 822T370 841T337 850Q319 850 309 837T293 793Z" />
<glyph unicode="&#xd6;" glyph-name="Odieresis" horiz-adv-x="809" d="M765 350Q765 275 737 209T661 94T546 17T405 -11Q330 -11 264 17T149 93T72 208T44 350Q44 425 72 491T148 606T263 683T405 711Q480 711 546 683T660 607T737 492T765 350ZM687 350Q687
411 665 464T606 556T516 617T405 640Q345 640 293 618T204 557T144 465T122 350Q122 289 144 236T203 144T293 83T405 60Q464 60 516 82T605 144T665 236T687 350ZM317 809Q296 809 282 823T267 858Q267 878 281 892T317 906Q338 906 352 892T366 858Q366 837
352 823T317 809ZM492 809Q471 809 457 823T443 858Q443 878 457 892T492 906Q514 906 527 892T541 858Q541 837 527 823T492 809Z" />
<glyph unicode="&#xd7;" glyph-name="multiply" horiz-adv-x="544" d="M116 162L77 202L232 359L77 516L117 557L272 400L427 557L466 517L311 360L467 202L427 161L271 319L116 162Z" />
<glyph unicode="&#xd8;" glyph-name="Oslash" horiz-adv-x="809" d="M151 0H72L149 93Q100 142 72 208T44 350Q44 425 72 491T148 606T263 683T405 711Q462 711 514 695T609 649L651 700H732L657 610Q707 561 736 494T765 350Q765 275 737 209T661 94T546 17T405
-11Q347 -11 294 6T196 54L151 0ZM122 350Q122 292 142 241T197 151L562 593Q529 615 489 627T405 640Q345 640 293 618T204 557T144 465T122 350ZM687 350Q687 410 667 462T610 552L243 110Q277 87 318 74T405 60Q464 60 516 82T605 144T665 236T687 350Z" />
<glyph unicode="&#xd9;" glyph-name="Ugrave" horiz-adv-x="704" d="M641 296Q641 156 563 73T352 -11Q219 -11 141 72T63 296V700H140V296Q140 189 198 125T352 60Q448 60 506 124T564 296V700H641V296ZM311 915L403 799H338L215 915H311Z" />
<glyph unicode="&#xda;" glyph-name="Uacute" horiz-adv-x="704" d="M641 296Q641 156 563 73T352 -11Q219 -11 141 72T63 296V700H140V296Q140 189 198 125T352 60Q448 60 506 124T564 296V700H641V296ZM392 915H487L363 799H298L392 915Z" />
<glyph unicode="&#xdb;" glyph-name="Ucircumflex" horiz-adv-x="704" d="M641 296Q641 156 563 73T352 -11Q219 -11 141 72T63 296V700H140V296Q140 189 198 125T352 60Q448 60 506 124T564 296V700H641V296ZM435 795L351 875L268 795H208L312 916H392L496 795H435Z" />
<glyph unicode="&#xdc;" glyph-name="Udieresis" horiz-adv-x="704" d="M641 296Q641 156 563 73T352 -11Q219 -11 141 72T63 296V700H140V296Q140 189 198 125T352 60Q448 60 506 124T564 296V700H641V296ZM265 809Q244 809 230 823T215 858Q215 878 229 892T265
906Q286 906 300 892T314 858Q314 837 300 823T265 809ZM440 809Q419 809 405 823T391 858Q391 878 405 892T440 906Q462 906 475 892T489 858Q489 837 475 823T440 809Z" />
<glyph unicode="&#xdd;" glyph-name="Yacute" horiz-adv-x="639" d="M281 0V285L3 700H93L322 353L550 700H637L358 282V0H281ZM360 915H455L331 799H266L360 915Z" />
<glyph unicode="&#xde;" glyph-name="Thorn" horiz-adv-x="637" d="M77 0V700H154V559H383Q429 559 468 543T536 499T581 433T598 349Q598 305 582 267T537 202T469 158T383 142H154V0H77ZM375 490H154V209H375Q436 209 478 249T520 349Q520 409 478 450T375 490Z" />
<glyph unicode="&#xdf;" glyph-name="germandbls" horiz-adv-x="628" d="M337 364Q337 345 351 333T405 307L482 281Q548 258 577 225T606 141Q606 73 556 31T424 -11Q367 -11 318 9T228 70L273 113Q307 79 343 63T423 46Q474 46 505 70T537 134Q537 168 519 188T454
225L374 251Q314 271 290 294T265 355Q265 400 295 425T362 469T428 511T459 573Q459 617 416 645T307 673Q224 673 180 624T136 484V0H63V482Q63 601 127 668T305 735Q407 735 469 692T531 579Q531 525 501 495T434 445T368 409T337 364Z" />
<glyph unicode="&#xe0;" glyph-name="agrave" horiz-adv-x="516" d="M221 -9Q139 -9 88 33T36 142Q36 212 90 253T236 295Q276 295 313 286T383 261V327Q383 387 349 417T250 448Q213 448 176 438T93 404L65 461Q119 487 165 499T257 511Q352 511 403 466T455
337V0H383V49Q349 20 309 6T221 -9ZM107 144Q107 102 142 76T234 49Q279 49 316 63T383 107V201Q352 222 317 231T238 241Q178 241 143 215T107 144ZM464 716L556 600H491L368 716H464Z" />
<glyph unicode="&#xe1;" glyph-name="aacute" horiz-adv-x="516" d="M221 -9Q139 -9 88 33T36 142Q36 212 90 253T236 295Q276 295 313 286T383 261V327Q383 387 349 417T250 448Q213 448 176 438T93 404L65 461Q119 487 165 499T257 511Q352 511 403 466T455
337V0H383V49Q349 20 309 6T221 -9ZM107 144Q107 102 142 76T234 49Q279 49 316 63T383 107V201Q352 222 317 231T238 241Q178 241 143 215T107 144ZM289 716H384L260 600H195L289 716Z" />
<glyph unicode="&#xe2;" glyph-name="acircumflex" horiz-adv-x="516" d="M221 -9Q139 -9 88 33T36 142Q36 212 90 253T236 295Q276 295 313 286T383 261V327Q383 387 349 417T250 448Q213 448 176 438T93 404L65 461Q119 487 165 499T257 511Q352 511 403 466T455
337V0H383V49Q349 20 309 6T221 -9ZM107 144Q107 102 142 76T234 49Q279 49 316 63T383 107V201Q352 222 317 231T238 241Q178 241 143 215T107 144ZM588 596L504 676L421 596H361L465 717H545L649 596H588Z" />
<glyph unicode="&#xe3;" glyph-name="atilde" horiz-adv-x="516" d="M221 -9Q139 -9 88 33T36 142Q36 212 90 253T236 295Q276 295 313 286T383 261V327Q383 387 349 417T250 448Q213 448 176 438T93 404L65 461Q119 487 165 499T257 511Q352 511 403 466T455
337V0H383V49Q349 20 309 6T221 -9ZM107 144Q107 102 142 76T234 49Q279 49 316 63T383 107V201Q352 222 317 231T238 241Q178 241 143 215T107 144ZM393 594L341 604Q352 654 375 679T435 704Q455 704 474 696T512 677T547 658T580 649Q597 649 607 662T625 706L676
696Q666 646 642 621T582 596Q562 596 543 604T506 623T470 642T437 651Q419 651 409 638T393 594Z" />
<glyph unicode="&#xe4;" glyph-name="adieresis" horiz-adv-x="516" d="M221 -9Q139 -9 88 33T36 142Q36 212 90 253T236 295Q276 295 313 286T383 261V327Q383 387 349 417T250 448Q213 448 176 438T93 404L65 461Q119 487 165 499T257 511Q352 511 403 466T455
337V0H383V49Q349 20 309 6T221 -9ZM107 144Q107 102 142 76T234 49Q279 49 316 63T383 107V201Q352 222 317 231T238 241Q178 241 143 215T107 144ZM418 610Q397 610 383 624T368 659Q368 679 382 693T418 707Q439 707 453 693T467 659Q467 638 453 624T418 610ZM593
610Q572 610 558 624T544 659Q544 679 558 693T593 707Q615 707 628 693T642 659Q642 638 628 624T593 610Z" />
<glyph unicode="&#xe5;" glyph-name="aring" horiz-adv-x="516" d="M221 -9Q139 -9 88 33T36 142Q36 212 90 253T236 295Q276 295 313 286T383 261V327Q383 387 349 417T250 448Q213 448 176 438T93 404L65 461Q119 487 165 499T257 511Q352 511 403 466T455 337V0H383V49Q349
20 309 6T221 -9ZM107 144Q107 102 142 76T234 49Q279 49 316 63T383 107V201Q352 222 317 231T238 241Q178 241 143 215T107 144ZM505 582Q458 582 426 615T393 694Q393 740 425 772T505 804Q551 804 583 772T616 694Q616 648 584 615T505 582ZM505 623Q533 623
553 643T573 694Q573 722 553 742T505 763Q476 763 456 743T436 694Q436 663 456 643T505 623Z" />
<glyph unicode="&#xe6;" glyph-name="ae" horiz-adv-x="907" d="M221 -9Q139 -9 88 33T37 142Q37 211 92 253T239 295Q278 295 315 287T383 263V327Q383 387 349 417T250 448Q213 448 176 438T93 404L65 461Q119 487 165 499T257 511Q327 511 374 486T440 413Q473
458 522 483T630 509Q680 509 723 489T798 434T848 352T867 251V228H456Q464 154 517 105T644 56Q683 56 720 68T782 102L828 53Q786 22 741 7T641 -9Q578 -9 524 18T435 92Q394 43 340 17T221 -9ZM628 444Q563 444 516 400T458 287H793Q783 353 737 398T628 444ZM108
144Q108 102 143 76T234 49Q285 49 328 71T408 137Q401 152 396 168T387 201Q356 222 320 231T241 241Q181 241 145 214T108 144Z" />
<glyph unicode="&#xe7;" glyph-name="ccedilla" horiz-adv-x="513" d="M297 58Q337 58 374 74T443 121L489 71Q453 37 409 17T315 -8L302 -55Q345 -57 371 -79T397 -137Q397 -177 365 -202T282 -228Q249 -228 220 -218T169 -187L199 -155Q218 -171 239 -179T282
-187Q312 -187 329 -174T346 -138Q346 -116 328 -104T277 -91H248L272 -8Q223 -4 180 18T107 74T58 154T40 251Q40 305 60 352T114 435T195 490T295 511Q349 511 400 490T491 432L444 378Q414 409 375 426T296 443Q258 443 224 428T166 387T127 326T113 251Q113
210 127 175T166 114T225 73T297 58Z" />
<glyph unicode="&#xe8;" glyph-name="egrave" horiz-adv-x="564" d="M485 53Q443 22 398 7T298 -9Q244 -9 197 11T115 66T60 148T40 251Q40 305 59 352T112 434T190 489T287 509Q337 509 380 489T455 434T505 352T524 251V228H113Q121 154 174 105T301 56Q340
56 377 68T439 102L485 53ZM285 444Q220 444 173 400T115 287H450Q440 353 394 398T285 444ZM501 716L593 600H528L405 716H501Z" />
<glyph unicode="&#xe9;" glyph-name="eacute" horiz-adv-x="564" d="M485 53Q443 22 398 7T298 -9Q244 -9 197 11T115 66T60 148T40 251Q40 305 59 352T112 434T190 489T287 509Q337 509 380 489T455 434T505 352T524 251V228H113Q121 154 174 105T301 56Q340
56 377 68T439 102L485 53ZM285 444Q220 444 173 400T115 287H450Q440 353 394 398T285 444ZM326 716H421L297 600H232L326 716Z" />
<glyph unicode="&#xea;" glyph-name="ecircumflex" horiz-adv-x="564" d="M485 53Q443 22 398 7T298 -9Q244 -9 197 11T115 66T60 148T40 251Q40 305 59 352T112 434T190 489T287 509Q337 509 380 489T455 434T505 352T524 251V228H113Q121 154 174 105T301 56Q340
56 377 68T439 102L485 53ZM285 444Q220 444 173 400T115 287H450Q440 353 394 398T285 444ZM369 596L285 676L202 596H142L246 717H326L430 596H369Z" />
<glyph unicode="&#xeb;" glyph-name="edieresis" horiz-adv-x="564" d="M485 53Q443 22 398 7T298 -9Q244 -9 197 11T115 66T60 148T40 251Q40 305 59 352T112 434T190 489T287 509Q337 509 380 489T455 434T505 352T524 251V228H113Q121 154 174 105T301 56Q340
56 377 68T439 102L485 53ZM285 444Q220 444 173 400T115 287H450Q440 353 394 398T285 444ZM199 610Q178 610 164 624T149 659Q149 679 163 693T199 707Q220 707 234 693T248 659Q248 638 234 624T199 610ZM374 610Q353 610 339 624T325 659Q325 679 339 693T374
707Q396 707 409 693T423 659Q423 638 409 624T374 610Z" />
<glyph unicode="&#xec;" glyph-name="igrave" horiz-adv-x="199" d="M137 501V0H63V501H137ZM59 716L151 600H86L-37 716H59Z" />
<glyph unicode="&#xed;" glyph-name="iacute" horiz-adv-x="199" d="M137 501V0H63V501H137ZM395 716H490L366 600H301L395 716Z" />
<glyph unicode="&#xee;" glyph-name="icircumflex" horiz-adv-x="199" d="M137 501V0H63V501H137ZM183 596L99 676L16 596H-44L60 717H140L244 596H183Z" />
<glyph unicode="&#xef;" glyph-name="idieresis" horiz-adv-x="199" d="M137 501V0H63V501H137ZM12 610Q-9 610 -23 624T-38 659Q-38 679 -24 693T12 707Q33 707 47 693T61 659Q61 638 47 624T12 610ZM187 610Q166 610 152 624T138 659Q138 679 152 693T187 707Q209
707 222 693T236 659Q236 638 222 624T187 610Z" />
<glyph unicode="&#xf0;" glyph-name="eth" horiz-adv-x="601" d="M263 528L232 574L319 628Q296 644 269 656T212 677L242 731Q280 719 314 703T378 664L488 733L519 687L422 627Q483 567 515 482T548 292Q548 224 530 168T478 73T396 12T290 -10Q238 -10 192
10T113 64T61 145T41 246Q41 297 60 342T111 419T189 471T285 490Q346 490 395 462T472 384Q462 446 435 499T365 592L263 528ZM292 57Q367 57 418 110T470 242Q470 320 419 373T292 426Q217 426 165 373T113 242Q113 164 165 111T292 57Z" />
<glyph unicode="&#xf1;" glyph-name="ntilde" horiz-adv-x="549" d="M63 0V501H137V442Q166 476 206 493T295 511Q380 511 434 457T488 317V0H415V302Q415 368 377 407T275 446Q230 446 195 426T137 369V0H63ZM165 594L113 604Q124 654 147 679T207 704Q227 704
246 696T284 677T319 658T352 649Q369 649 379 662T397 706L448 696Q438 646 414 621T354 596Q334 596 315 604T278 623T242 642T209 651Q191 651 181 638T165 594Z" />
<glyph unicode="&#xf2;" glyph-name="ograve" horiz-adv-x="591" d="M40 251Q40 305 60 353T114 436T196 491T296 511Q349 511 395 491T476 436T531 353T551 251Q551 196 531 148T477 65T396 10T296 -10Q243 -10 196 10T115 65T60 148T40 251ZM296 56Q334 56 367
71T425 112T464 174T478 251Q478 292 464 327T426 389T368 430T296 445Q258 445 225 430T167 389T128 328T113 251Q113 210 127 175T165 113T224 71T296 56ZM511 716L603 600H538L415 716H511Z" />
<glyph unicode="&#xf3;" glyph-name="oacute" horiz-adv-x="591" d="M40 251Q40 305 60 353T114 436T196 491T296 511Q349 511 395 491T476 436T531 353T551 251Q551 196 531 148T477 65T396 10T296 -10Q243 -10 196 10T115 65T60 148T40 251ZM296 56Q334 56 367
71T425 112T464 174T478 251Q478 292 464 327T426 389T368 430T296 445Q258 445 225 430T167 389T128 328T113 251Q113 210 127 175T165 113T224 71T296 56ZM336 716H431L307 600H242L336 716Z" />
<glyph unicode="&#xf4;" glyph-name="ocircumflex" horiz-adv-x="591" d="M40 251Q40 305 60 353T114 436T196 491T296 511Q349 511 395 491T476 436T531 353T551 251Q551 196 531 148T477 65T396 10T296 -10Q243 -10 196 10T115 65T60 148T40 251ZM296 56Q334
56 367 71T425 112T464 174T478 251Q478 292 464 327T426 389T368 430T296 445Q258 445 225 430T167 389T128 328T113 251Q113 210 127 175T165 113T224 71T296 56ZM379 596L295 676L212 596H152L256 717H336L440 596H379Z" />
<glyph unicode="&#xf5;" glyph-name="otilde" horiz-adv-x="591" d="M40 251Q40 305 60 353T114 436T196 491T296 511Q349 511 395 491T476 436T531 353T551 251Q551 196 531 148T477 65T396 10T296 -10Q243 -10 196 10T115 65T60 148T40 251ZM296 56Q334 56 367
71T425 112T464 174T478 251Q478 292 464 327T426 389T368 430T296 445Q258 445 225 430T167 389T128 328T113 251Q113 210 127 175T165 113T224 71T296 56ZM184 594L132 604Q143 654 166 679T226 704Q246 704 265 696T303 677T338 658T371 649Q388 649 398 662T416
706L467 696Q457 646 433 621T373 596Q353 596 334 604T297 623T261 642T228 651Q210 651 200 638T184 594Z" />
<glyph unicode="&#xf6;" glyph-name="odieresis" horiz-adv-x="591" d="M40 251Q40 305 60 353T114 436T196 491T296 511Q349 511 395 491T476 436T531 353T551 251Q551 196 531 148T477 65T396 10T296 -10Q243 -10 196 10T115 65T60 148T40 251ZM296 56Q334 56
367 71T425 112T464 174T478 251Q478 292 464 327T426 389T368 430T296 445Q258 445 225 430T167 389T128 328T113 251Q113 210 127 175T165 113T224 71T296 56ZM208 610Q187 610 173 624T158 659Q158 679 172 693T208 707Q229 707 243 693T257 659Q257 638 243
624T208 610ZM383 610Q362 610 348 624T334 659Q334 679 348 693T383 707Q405 707 418 693T432 659Q432 638 418 624T383 610Z" />
<glyph unicode="&#xf7;" glyph-name="divide" horiz-adv-x="525" d="M263 494Q242 494 227 509T212 545Q212 566 227 581T263 596Q284 596 299 581T314 545Q314 524 299 509T263 494ZM55 327V389H470V327H55ZM263 119Q242 119 227 134T212 170Q212 191 227 206T263
221Q284 221 299 206T314 170Q314 149 299 134T263 119Z" />
<glyph unicode="&#xf8;" glyph-name="oslash" horiz-adv-x="591" d="M53 0L111 69Q78 104 59 150T40 251Q40 305 60 353T114 436T196 491T296 511Q336 511 373 499T441 466L471 501H537L480 433Q513 398 532 351T551 251Q551 196 531 148T477 65T396 10T296 -10Q255
-10 218 2T149 36L119 0H53ZM113 251Q113 214 124 182T156 124L398 413Q376 428 350 436T296 445Q258 445 225 430T167 389T128 328T113 251ZM296 56Q334 56 367 71T425 112T464 174T478 251Q478 288 467 320T435 378L193 89Q215 73 241 65T296 56Z" />
<glyph unicode="&#xf9;" glyph-name="ugrave" horiz-adv-x="549" d="M134 501V199Q134 133 172 94T274 55Q319 55 354 75T412 133V501H486V0H412V58Q383 24 344 7T255 -10Q169 -10 115 44T61 184V501H134ZM491 716L583 600H518L395 716H491Z" />
<glyph unicode="&#xfa;" glyph-name="uacute" horiz-adv-x="549" d="M134 501V199Q134 133 172 94T274 55Q319 55 354 75T412 133V501H486V0H412V58Q383 24 344 7T255 -10Q169 -10 115 44T61 184V501H134ZM315 716H410L286 600H221L315 716Z" />
<glyph unicode="&#xfb;" glyph-name="ucircumflex" horiz-adv-x="549" d="M134 501V199Q134 133 172 94T274 55Q319 55 354 75T412 133V501H486V0H412V58Q383 24 344 7T255 -10Q169 -10 115 44T61 184V501H134ZM359 596L275 676L192 596H132L236 717H316L420 596H359Z" />
<glyph unicode="&#xfc;" glyph-name="udieresis" horiz-adv-x="549" d="M134 501V199Q134 133 172 94T274 55Q319 55 354 75T412 133V501H486V0H412V58Q383 24 344 7T255 -10Q169 -10 115 44T61 184V501H134ZM188 610Q167 610 153 624T138 659Q138 679 152 693T188
707Q209 707 223 693T237 659Q237 638 223 624T188 610ZM363 610Q342 610 328 624T314 659Q314 679 328 693T363 707Q385 707 398 693T412 659Q412 638 398 624T363 610Z" />
<glyph unicode="&#xfd;" glyph-name="yacute" horiz-adv-x="510" d="M180 -65L209 1L5 501H87L249 90L424 501H504L255 -75Q223 -147 184 -179T85 -211Q71 -211 59 -210T38 -206V-139Q48 -141 57 -142T80 -143Q114 -143 138 -124T180 -65ZM290 716H385L261 600H196L290
716Z" />
<glyph unicode="&#xfe;" glyph-name="thorn" horiz-adv-x="591" d="M63 -205V700L137 717V448Q168 478 209 493T298 509Q351 509 397 489T477 435T530 353T550 251Q550 197 531 149T477 67T397 12T297 -8Q253 -8 212 7T137 50V-205H63ZM291 444Q244 444 204 426T137
374V126Q163 94 204 76T291 57Q370 57 423 112T477 250Q477 291 463 326T423 388T364 429T291 444Z" />
<glyph unicode="&#xff;" glyph-name="ydieresis" horiz-adv-x="510" d="M180 -65L209 1L5 501H87L249 90L424 501H504L255 -75Q223 -147 184 -179T85 -211Q71 -211 59 -210T38 -206V-139Q48 -141 57 -142T80 -143Q114 -143 138 -124T180 -65ZM419 610Q398 610
384 624T369 659Q369 679 383 693T419 707Q440 707 454 693T468 659Q468 638 454 624T419 610ZM594 610Q573 610 559 624T545 659Q545 679 559 693T594 707Q616 707 629 693T643 659Q643 638 629 624T594 610Z" />
<glyph unicode="&#x2013;" glyph-name="endash" horiz-adv-x="547" d="M49 314H498V248H49V314Z" />
<glyph unicode="&#x2014;" glyph-name="emdash" horiz-adv-x="697" d="M49 314H648V248H49V314Z" />
<glyph unicode="&#x2018;" glyph-name="quoteleft" horiz-adv-x="198" d="M109 508H29L109 719H167L109 508Z" />
<glyph unicode="&#x2019;" glyph-name="quoteright" horiz-adv-x="198" d="M102 719H182L102 508H44L102 719Z" />
<glyph unicode="&#x201a;" glyph-name="quotesinglbase" horiz-adv-x="198" d="M76 74H156L76 -137H18L76 74Z" />
<glyph unicode="&#x201c;" glyph-name="quotedblleft" horiz-adv-x="333" d="M109 508H29L109 719H167L109 508ZM245 508H165L245 719H303L245 508Z" />
<glyph unicode="&#x201d;" glyph-name="quotedblright" horiz-adv-x="333" d="M238 719H318L238 508H180L238 719ZM102 719H182L102 508H44L102 719Z" />
<glyph unicode="&#x201e;" glyph-name="quotedblbase" horiz-adv-x="333" d="M212 74H292L212 -137H154L212 74ZM76 74H156L76 -137H18L76 74Z" />
<glyph unicode="&#x2022;" glyph-name="bullet" horiz-adv-x="328" d="M163 252Q122 252 93 281T63 352Q63 394 92 424T163 454Q205 454 235 424T265 352Q265 311 236 282T163 252Z" />
<glyph unicode="&#x2039;" glyph-name="guilsinglleft" horiz-adv-x="389" d="M344 501L116 253L347 0H265L31 251L265 501H344Z" />
<glyph unicode="&#x203a;" glyph-name="guilsinglright" horiz-adv-x="389" d="M45 0L273 248L42 501H124L358 250L124 0H45Z" />
</font>
</defs>
</svg>
