<svg width="400" height="400" viewBox="0 0 400 400" fill="none" xmlns="http://www.w3.org/2000/svg">
<circle cx="200" cy="200" r="187.5" stroke="#1B232F" stroke-width="25"/>
<path d="M194.582 7.98714L196.369 7.94119L196.589 16.5048L191.68 16.631L191.642 15.1432L194.764 15.0629L194.707 12.8547L191.802 12.9294L191.764 11.4475L194.669 11.3727L194.582 7.98714Z" fill="#EEEBE1"/>
<path d="M180.496 13.1427C180.39 11.7287 180.659 10.6156 181.303 9.8033C181.947 8.99103 182.923 8.5357 184.232 8.43732C185.541 8.33894 186.574 8.64319 187.332 9.35006C188.091 10.0569 188.523 11.1213 188.63 12.543C188.737 13.9648 188.468 15.076 187.823 15.8766C187.175 16.6814 186.194 17.1331 184.881 17.2318C183.568 17.3304 182.537 17.028 181.787 16.3244C181.033 15.6211 180.603 14.5606 180.496 13.1427ZM186.73 12.6741C186.659 11.7197 186.423 11.0147 186.025 10.5589C185.626 10.1031 185.067 9.9023 184.346 9.95647C182.901 10.0651 182.251 11.0796 182.395 13C182.54 14.9242 183.331 15.8323 184.768 15.7243C185.489 15.6701 186.014 15.3858 186.343 14.8714C186.673 14.3609 186.802 13.6284 186.73 12.6741Z" fill="#EEEBE1"/>
<path d="M170.487 10.1358L172.282 9.90136L172.761 13.5675L176.125 13.1283L175.646 9.46214L177.447 9.22698L178.556 17.7213L176.755 17.9565L176.321 14.6273L172.957 15.0665L173.391 18.3957L171.596 18.6301L170.487 10.1358Z" fill="#EEEBE1"/>
<path d="M163.451 11.4204L166.735 17.6363L166.787 17.6264C166.458 16.2973 166.251 15.4082 166.165 14.9593L165.42 11.0453L167.014 10.7415L168.617 19.1566L166.188 19.6194L162.971 13.5638L162.936 13.5704L162.05 20.4079L159.621 20.8707L158.018 12.4557L159.681 12.1387L160.44 16.1218C160.476 16.3098 160.515 16.527 160.558 16.7733C160.597 17.0203 160.695 17.6778 160.85 18.7456L160.902 18.7358L161.817 11.7318L163.451 11.4204Z" fill="#EEEBE1"/>
<path d="M148.865 19.2228C148.519 17.8477 148.594 16.705 149.089 15.7946C149.585 14.8842 150.47 14.2687 151.742 13.9482C153.015 13.6276 154.085 13.7508 154.953 14.3177C155.821 14.8847 156.429 15.8594 156.777 17.2421C157.125 18.6247 157.05 19.7655 156.551 20.6645C156.05 21.5683 155.161 22.1809 153.884 22.5025C152.608 22.824 151.54 22.7022 150.681 22.1371C149.817 21.5731 149.212 20.6016 148.865 19.2228ZM154.928 17.6958C154.694 16.7677 154.342 16.1132 153.871 15.7322C153.401 15.3512 152.815 15.249 152.114 15.4255C150.709 15.7795 150.241 16.8902 150.712 18.7577C151.183 20.6289 152.117 21.3885 153.515 21.0365C154.216 20.86 154.685 20.4902 154.922 19.927C155.159 19.3676 155.161 18.6239 154.928 17.6958Z" fill="#EEEBE1"/>
<path d="M134.491 21.2687L135.467 20.9356L134.893 19.2554L136.568 18.6838L137.141 20.364L140.602 19.1829L141.008 20.3752L139.24 26.8233L137.66 27.3627L135.921 22.2665L134.945 22.5996L134.491 21.2687ZM137.596 21.6949L138.065 23.0701C138.143 23.2993 138.247 23.6352 138.378 24.0778C138.508 24.5203 138.58 24.7786 138.593 24.8526L138.637 24.8375C138.67 24.4876 138.734 24.1357 138.828 23.7818L139.547 21.0286L137.596 21.6949Z" fill="#EEEBE1"/>
<path d="M123.777 23.6853L125.419 22.98L128.799 30.8515L124.287 32.7891L123.7 31.4216L126.569 30.1892L125.698 28.1594L123.027 29.3062L122.443 27.9441L125.113 26.7972L123.777 23.6853Z" fill="#EEEBE1"/>
<path d="M112.606 33.6975C111.983 32.4238 111.82 31.2903 112.117 30.297C112.414 29.3038 113.152 28.5188 114.331 27.9421C115.51 27.3653 116.583 27.2646 117.549 27.6399C118.515 28.0152 119.312 28.8432 119.938 30.124C120.564 31.4048 120.727 32.5365 120.424 33.5193C120.121 34.5072 119.377 35.2904 118.195 35.8688C117.012 36.4473 115.942 36.5489 114.985 36.1737C114.024 35.8002 113.231 34.9748 112.606 33.6975ZM118.222 30.9503C117.802 30.0906 117.322 29.523 116.783 29.2475C116.244 28.972 115.65 28.993 115 29.3106C113.699 29.9474 113.471 31.1308 114.317 32.8607C115.165 34.5942 116.236 35.1442 117.531 34.5108C118.18 34.1933 118.562 33.7345 118.677 33.1345C118.794 32.5381 118.643 31.81 118.222 30.9503Z" fill="#EEEBE1"/>
<path d="M102.196 34.6153L103.776 33.7318L105.58 36.9592L108.541 35.3038L106.737 32.0764L108.323 31.1901L112.502 38.6677L110.917 39.554L109.279 36.6233L106.317 38.2788L107.956 41.2095L106.375 42.093L102.196 34.6153Z" fill="#EEEBE1"/>
<path d="M96.1383 38.4187L101.493 42.9738L101.537 42.9455C100.739 41.833 100.217 41.0841 99.9711 40.6989L97.8273 37.3404L99.1953 36.467L103.804 43.6877L101.72 45.0183L96.4869 40.5875L96.4573 40.6064L98.1694 47.2854L96.0853 48.6159L91.4762 41.3952L92.9034 40.484L95.0851 43.9017C95.188 44.0631 95.3051 44.2501 95.4364 44.463C95.5643 44.6779 95.8985 45.2524 96.4391 46.1864L96.4836 46.158L94.7357 39.3142L96.1383 38.4187Z" fill="#EEEBE1"/>
<path d="M85.4841 51.0731C84.6527 49.9245 84.2984 48.8355 84.4213 47.8061C84.5442 46.7767 85.1372 45.8772 86.2003 45.1075C87.2634 44.3378 88.3031 44.0553 89.3192 44.26C90.3354 44.4647 91.2615 45.1445 92.0975 46.2995C92.9336 47.4544 93.2867 48.5418 93.1569 49.5617C93.0263 50.587 92.4278 51.4857 91.3616 52.2577C90.2953 53.0297 89.2584 53.3126 88.2508 53.1065C87.2401 52.9027 86.3179 52.2249 85.4841 51.0731ZM90.5482 47.4067C89.987 46.6315 89.4173 46.1542 88.839 45.9749C88.2608 45.7955 87.6789 45.9178 87.0936 46.3416C85.9197 47.1914 85.8974 48.3964 87.0266 49.9563C88.1581 51.5195 89.3076 51.8784 90.4751 51.0331C91.0605 50.6093 91.3587 50.092 91.3698 49.4811C91.3832 48.8734 91.1094 48.182 90.5482 47.4067Z" fill="#EEEBE1"/>
<path d="M72.8936 58.305L73.6765 57.6337L72.5209 56.2859L73.8642 55.134L75.0197 56.4818L77.7953 54.1018L78.6152 55.0581L79.3643 61.7023L78.0966 62.7893L74.5918 58.7013L73.8089 59.3726L72.8936 58.305ZM75.935 57.5494L76.8809 58.6526C77.0385 58.8365 77.2599 59.1097 77.5451 59.4724C77.8303 59.835 77.9926 60.0483 78.032 60.1123L78.0676 60.0818C77.9688 59.7445 77.8974 59.3941 77.8532 59.0306L77.5007 56.2068L75.935 57.5494Z" fill="#EEEBE1"/>
<path d="M63.84 64.5225L65.1034 63.2586L71.1612 69.3156L67.6897 72.7882L66.6373 71.7358L68.8452 69.5272L67.2832 67.9653L65.2285 70.0206L64.1802 68.9725L66.2349 66.9171L63.84 64.5225Z" fill="#EEEBE1"/>
<path d="M57.1784 77.9628C56.1275 77.0108 55.5557 76.0186 55.4632 74.986C55.3706 73.9535 55.7649 72.9508 56.6459 71.978C57.527 71.0051 58.4858 70.5138 59.5223 70.5041C60.5588 70.4943 61.6055 70.968 62.6622 71.9252C63.7189 72.8824 64.2892 73.8733 64.373 74.898C64.4572 75.9282 64.0574 76.9311 63.1737 77.9069C62.2901 78.8826 61.334 79.3738 60.3056 79.3804C59.2746 79.3899 58.2322 78.9173 57.1784 77.9628ZM61.3752 73.3288C60.6659 72.6863 60.0098 72.3371 59.407 72.2812C58.8041 72.2252 58.2601 72.4651 57.775 73.0007C56.8022 74.0749 57.0294 75.2584 58.4567 76.5513C59.8869 77.8468 61.0857 77.9603 62.0533 76.892C62.5384 76.3563 62.7233 75.7885 62.6079 75.1886C62.4954 74.5912 62.0845 73.9713 61.3752 73.3288Z" fill="#EEEBE1"/>
<path d="M47.8496 82.6767L48.9897 81.2702L51.8617 83.5985L53.9979 80.963L51.1259 78.6346L52.2696 77.2235L58.924 82.6182L57.7803 84.0293L55.1722 81.915L53.036 84.5505L55.644 86.6649L54.504 88.0714L47.8496 82.6767Z" fill="#EEEBE1"/>
<path d="M43.6345 88.4554L50.2964 90.7002L50.3271 90.6573C49.1733 89.9202 48.4108 89.4183 48.0396 89.1517L44.8033 86.8276L45.7499 85.5092L52.708 90.506L51.2659 92.5145L44.7626 90.3403L44.7421 90.3688L48.8088 95.9367L47.3667 97.9453L40.4086 92.9485L41.3962 91.5729L44.6896 93.938C44.8451 94.0497 45.0232 94.18 45.224 94.329C45.4225 94.4812 45.946 94.8907 46.7943 95.5577L46.8251 95.5149L42.664 89.8071L43.6345 88.4554Z" fill="#EEEBE1"/>
<path d="M38.4325 104.159C37.2344 103.4 36.5015 102.52 36.2339 101.519C35.9663 100.517 36.1835 99.4619 36.8854 98.3528C37.5873 97.2438 38.4481 96.5959 39.4677 96.4092C40.4873 96.2225 41.5995 96.5104 42.8042 97.273C44.0089 98.0356 44.7401 98.9145 44.9978 99.9098C45.2567 100.91 45.0341 101.967 44.3301 103.079C43.6261 104.192 42.7681 104.839 41.7559 105.021C40.7417 105.207 39.6339 104.919 38.4325 104.159ZM41.7759 98.8758C40.9673 98.3639 40.2612 98.132 39.6576 98.1799C39.0541 98.2277 38.5591 98.557 38.1726 99.1677C37.3976 100.392 37.8237 101.52 39.4508 102.55C41.0813 103.582 42.282 103.489 43.0528 102.271C43.4393 101.66 43.5244 101.069 43.3082 100.498C43.0953 99.9283 42.5845 99.3877 41.7759 98.8758Z" fill="#EEEBE1"/>
<path d="M29.4205 115.543L29.8985 114.63L28.3255 113.807L29.1459 112.239L30.7189 113.062L32.414 109.822L33.5302 110.406L36.6896 116.299L35.9154 117.779L31.1445 115.282L30.6664 116.196L29.4205 115.543ZM31.9649 113.714L33.2523 114.388C33.4669 114.5 33.7739 114.672 34.1732 114.903C34.5725 115.134 34.8024 115.272 34.8627 115.316L34.8844 115.275C34.6676 114.998 34.4714 114.699 34.2956 114.378L32.9211 111.886L31.9649 113.714Z" fill="#EEEBE1"/>
<path d="M23.317 124.677L24.0218 123.034L31.8937 126.413L29.9574 130.925L28.5898 130.338L29.8214 127.468L27.7915 126.597L26.6454 129.268L25.2831 128.683L26.4292 126.012L23.317 124.677Z" fill="#EEEBE1"/>
<path d="M22.1139 139.629C20.7849 139.134 19.8859 138.425 19.4171 137.5C18.9483 136.576 18.9426 135.498 19.4001 134.268C19.8576 133.038 20.5659 132.226 21.5249 131.833C22.4839 131.439 23.6316 131.491 24.9679 131.988C26.3042 132.485 27.2013 133.194 27.6592 134.114C28.1193 135.04 28.12 136.12 27.6611 137.353C27.2022 138.587 26.4965 139.398 25.5439 139.785C24.5899 140.177 23.4465 140.124 22.1139 139.629ZM24.2931 133.769C23.3962 133.435 22.6574 133.354 22.0767 133.526C21.4961 133.697 21.0799 134.122 20.828 134.799C20.3228 136.157 20.9727 137.172 22.7777 137.844C24.5863 138.516 25.7418 138.177 26.2442 136.826C26.4961 136.149 26.4573 135.553 26.1276 135.039C25.8016 134.526 25.1901 134.102 24.2931 133.769Z" fill="#EEEBE1"/>
<path d="M15.1995 147.466L15.7368 145.737L19.2674 146.834L20.2741 143.595L16.7434 142.497L17.2824 140.763L25.4628 143.305L24.9239 145.04L21.7177 144.043L20.7111 147.283L23.9172 148.279L23.38 150.008L15.1995 147.466Z" fill="#EEEBE1"/>
<path d="M13.427 154.396L20.4464 154.01L20.459 153.959C19.1141 153.702 18.2199 153.519 17.7762 153.409L13.9088 152.451L14.299 150.875L22.6141 152.935L22.0195 155.335L15.1735 155.728L15.1651 155.762L21.0066 159.425L20.412 161.825L12.097 159.765L12.5042 158.121L16.4399 159.096C16.6257 159.142 16.8394 159.197 17.0812 159.261C17.3219 159.329 17.9599 159.515 18.9951 159.82L19.0078 159.769L13.0269 156.011L13.427 154.396Z" fill="#EEEBE1"/>
<path d="M14.4185 170.91C13.0245 170.65 12.0176 170.104 11.3977 169.274C10.7778 168.443 10.5882 167.382 10.8288 166.092C11.0695 164.802 11.6286 163.881 12.5064 163.329C13.3841 162.778 14.5237 162.633 15.9253 162.894C17.3269 163.156 18.3319 163.701 18.9403 164.529C19.5518 165.363 19.7369 166.426 19.4955 167.72C19.2542 169.015 18.6973 169.934 17.8248 170.478C16.9517 171.027 15.8162 171.171 14.4185 170.91ZM15.5647 164.764C14.6239 164.588 13.8821 164.635 13.3393 164.903C12.7966 165.171 12.4589 165.661 12.3265 166.371C12.0608 167.796 12.8745 168.685 14.7676 169.038C16.6646 169.392 17.7452 168.86 18.0094 167.443C18.1419 166.733 18.0018 166.152 17.5892 165.702C17.1803 165.252 16.5055 164.939 15.5647 164.764Z" fill="#EEEBE1"/>
<path d="M10.2705 184.825L10.3757 183.799L8.6096 183.618L8.79013 181.858L10.5563 182.039L10.9293 178.402L12.1825 178.53L17.3017 182.831L17.1313 184.492L11.7746 183.943L11.6694 184.969L10.2705 184.825ZM11.9552 182.183L13.4007 182.331C13.6416 182.356 13.9904 182.401 14.4469 182.468C14.9034 182.534 15.168 182.577 15.2407 182.596L15.2454 182.55C14.9415 182.373 14.6484 182.168 14.366 181.935L12.1656 180.131L11.9552 182.183Z" fill="#EEEBE1"/>
<path d="M7.98929 195.57L8.03485 193.783L16.5985 194.002L16.4733 198.91L14.9855 198.872L15.0651 195.75L12.8568 195.694L12.7828 198.599L11.3008 198.562L11.3749 195.656L7.98929 195.57Z" fill="#EEEBE1"/>
<path d="M12.4169 209.903C10.9993 209.936 9.90141 209.611 9.12317 208.926C8.34492 208.241 7.94018 207.243 7.90893 205.931C7.87767 204.619 8.23443 203.602 8.97919 202.881C9.72395 202.16 10.809 201.782 12.2344 201.748C13.6598 201.714 14.7557 202.04 15.5223 202.725C16.2928 203.414 16.6937 204.416 16.7251 205.732C16.7564 207.048 16.4016 208.063 15.6605 208.776C14.9196 209.493 13.8384 209.869 12.4169 209.903ZM12.268 203.652C11.3113 203.675 10.5951 203.874 10.1195 204.249C9.64392 204.623 9.41472 205.172 9.43193 205.894C9.46644 207.343 10.4463 208.045 12.3715 207.999C14.3007 207.953 15.2481 207.209 15.2138 205.768C15.1966 205.046 14.9395 204.507 14.4426 204.152C13.9497 203.796 13.2248 203.63 12.268 203.652Z" fill="#EEEBE1"/>
<path d="M8.90009 219.745L8.75793 217.94L12.4438 217.65L12.1774 214.268L8.49155 214.558L8.34892 212.747L16.8889 212.074L17.0315 213.885L13.6844 214.149L13.9508 217.531L17.2979 217.267L17.44 219.072L8.90009 219.745Z" fill="#EEEBE1"/>
<path d="M9.82377 226.839L16.1997 223.878L16.1925 223.825C14.8483 224.086 13.9498 224.247 13.497 224.31L9.55002 224.854L9.32829 223.246L17.8144 222.076L18.1521 224.525L11.9398 227.429L11.9446 227.463L18.7277 228.699L19.0655 231.148L10.5794 232.318L10.3481 230.641L14.3647 230.087C14.5543 230.061 14.7732 230.033 15.0214 230.002C15.2702 229.976 15.9317 229.912 17.0061 229.811L16.9989 229.759L10.0511 228.488L9.82377 226.839Z" fill="#EEEBE1"/>
<path d="M16.8675 241.806C15.4765 242.082 14.3392 241.949 13.4554 241.407C12.5716 240.865 12.0022 239.95 11.7473 238.663C11.4924 237.375 11.6702 236.313 12.2808 235.475C12.8915 234.637 13.8961 234.08 15.2947 233.803C16.6933 233.526 17.8288 233.66 18.7011 234.204C19.5779 234.751 20.1442 235.67 20.3999 236.961C20.6556 238.253 20.4793 239.313 19.871 240.142C19.2634 240.975 18.2623 241.53 16.8675 241.806ZM15.6531 235.673C14.7143 235.859 14.0426 236.177 13.638 236.628C13.2335 237.078 13.1013 237.658 13.2417 238.367C13.5232 239.789 14.6085 240.312 16.4976 239.938C18.3905 239.563 19.197 238.669 18.917 237.255C18.7766 236.546 18.4313 236.059 17.881 235.794C17.3345 235.528 16.5919 235.487 15.6531 235.673Z" fill="#EEEBE1"/>
<path d="M18.1752 256.269L17.8925 255.277L16.1851 255.764L15.7001 254.062L17.4074 253.575L16.4052 250.059L17.6167 249.714L23.9656 251.809L24.4233 253.415L19.2448 254.892L19.5275 255.883L18.1752 256.269ZM18.7598 253.19L20.1573 252.791C20.3902 252.725 20.7309 252.638 21.1796 252.531C21.6282 252.423 21.8898 252.365 21.9644 252.356L21.9515 252.31C21.6039 252.259 21.2557 252.178 20.907 252.066L18.1945 251.206L18.7598 253.19Z" fill="#EEEBE1"/>
<path d="M20.04 267.094L19.4199 265.418L27.4539 262.445L29.1577 267.05L27.7619 267.566L26.6782 264.637L24.6065 265.404L25.615 268.13L24.2247 268.644L23.2163 265.919L20.04 267.094Z" fill="#EEEBE1"/>
<path d="M29.4657 278.763C28.1617 279.32 27.0214 279.424 26.0448 279.077C25.0681 278.73 24.322 277.953 23.8064 276.746C23.2909 275.539 23.2452 274.462 23.6695 273.516C24.0938 272.57 24.9615 271.817 26.2727 271.257C27.5838 270.697 28.7223 270.593 29.6882 270.945C30.6592 271.299 31.4033 272.081 31.9204 273.292C32.4374 274.502 32.4841 275.576 32.0603 276.513C31.6381 277.454 30.7732 278.204 29.4657 278.763ZM27.0099 273.013C26.1298 273.389 25.5384 273.839 25.2357 274.364C24.933 274.888 24.9235 275.482 25.2074 276.147C25.7766 277.48 26.9467 277.768 28.7177 277.011C30.4922 276.253 31.0964 275.211 30.5302 273.886C30.2463 273.221 29.8078 272.816 29.2145 272.67C28.6249 272.523 27.89 272.637 27.0099 273.013Z" fill="#EEEBE1"/>
<path d="M29.8501 289.207L29.0488 287.584L32.3641 285.947L30.8626 282.905L27.5473 284.541L26.7434 282.913L34.4249 279.121L35.2288 280.75L32.2182 282.236L33.7196 285.278L36.7302 283.792L37.5315 285.415L29.8501 289.207Z" fill="#EEEBE1"/>
<path d="M33.3382 295.453L38.1613 290.338L38.1352 290.292C36.9834 291.032 36.2088 291.516 35.8115 291.741L32.3478 293.711L31.5457 292.3L38.9926 288.066L40.2146 290.215L35.5218 295.216L35.5392 295.246L42.2966 293.878L43.5185 296.027L36.0717 300.261L35.2348 298.789L38.7596 296.785C38.926 296.691 39.1188 296.583 39.3381 296.463C39.5593 296.346 40.15 296.042 41.1104 295.55L41.0844 295.504L34.1605 296.9L33.3382 295.453Z" fill="#EEEBE1"/>
<path d="M45.4298 306.741C44.2402 307.513 43.1346 307.811 42.113 307.636C41.0913 307.46 40.2234 306.822 39.5092 305.721C38.7951 304.619 38.5662 303.567 38.8227 302.562C39.0791 301.558 39.8054 300.668 41.0016 299.892C42.1978 299.116 43.3018 298.819 44.3136 299C45.3308 299.183 46.1975 299.827 46.9138 300.932C47.6301 302.036 47.8595 303.086 47.6021 304.082C47.3468 305.081 46.6227 305.967 45.4298 306.741ZM42.028 301.496C41.2251 302.017 40.7193 302.561 40.5106 303.13C40.3019 303.698 40.3941 304.285 40.7873 304.892C41.5759 306.108 42.778 306.191 44.3936 305.143C46.0126 304.093 46.4299 302.964 45.6456 301.754C45.2523 301.148 44.751 300.824 44.1416 300.781C43.5354 300.737 42.8309 300.975 42.028 301.496Z" fill="#EEEBE1"/>
<path d="M52.0064 319.687L51.3761 318.871L49.971 319.956L48.8895 318.555L50.2947 317.47L48.0601 314.576L49.0571 313.806L55.7302 313.398L56.7508 314.72L52.4891 318.011L53.1194 318.827L52.0064 319.687ZM51.4076 316.61L52.5577 315.722C52.7494 315.574 53.0336 315.367 53.4103 315.101C53.7871 314.834 54.0084 314.683 54.0743 314.647L54.0456 314.61C53.7038 314.691 53.3502 314.745 52.9849 314.77L50.1471 314.978L51.4076 316.61Z" fill="#EEEBE1"/>
<path d="M57.7527 329.048L56.5553 327.722L62.9139 321.981L66.2038 325.626L65.0991 326.624L63.0066 324.305L61.3669 325.785L63.3142 327.943L62.2138 328.936L60.2665 326.779L57.7527 329.048Z" fill="#EEEBE1"/>
<path d="M70.8332 336.39C69.8288 337.391 68.8087 337.911 67.7729 337.95C66.737 337.99 65.756 337.545 64.8296 336.615C63.9032 335.685 63.4617 334.703 63.505 333.667C63.5482 332.631 64.0749 331.61 65.0848 330.604C66.0947 329.597 67.1135 329.078 68.141 329.047C69.174 329.016 70.1551 329.466 71.0842 330.399C72.0134 331.331 72.4549 332.311 72.4089 333.339C72.3656 334.369 71.8404 335.386 70.8332 336.39ZM66.4205 331.961C65.7426 332.636 65.3603 333.274 65.2737 333.873C65.187 334.472 65.3986 335.028 65.9087 335.54C66.9316 336.566 68.125 336.4 69.4891 335.041C70.856 333.679 71.0308 332.487 70.0134 331.466C69.5034 330.954 68.9458 330.74 68.3408 330.825C67.7385 330.907 67.0985 331.285 66.4205 331.961Z" fill="#EEEBE1"/>
<path d="M75.0633 345.948L73.7171 344.738L76.1891 341.988L73.6666 339.72L71.1946 342.469L69.844 341.255L75.5716 334.884L76.9222 336.099L74.6774 338.596L77.1999 340.864L79.4447 338.368L80.7909 339.578L75.0633 345.948Z" fill="#EEEBE1"/>
<path d="M80.6179 350.454L83.2004 343.916L83.1592 343.883C82.364 344.997 81.8238 345.733 81.5386 346.09L79.0522 349.204L77.784 348.191L83.1298 341.497L85.0618 343.04L82.5579 349.424L82.5853 349.446L88.3535 345.67L90.2854 347.213L84.9396 353.907L83.6166 352.85L86.1469 349.681C86.2663 349.532 86.4056 349.361 86.5646 349.168C86.7267 348.977 87.1625 348.475 87.8719 347.662L87.8307 347.629L81.9181 351.493L80.6179 350.454Z" fill="#EEEBE1"/>
<path d="M96.0328 356.453C95.2142 357.611 94.298 358.298 93.2841 358.514C92.2703 358.73 91.2276 358.459 90.156 357.701C89.0844 356.943 88.4814 356.05 88.3471 355.022C88.2128 353.994 88.5572 352.898 89.3804 351.734C90.2035 350.57 91.1187 349.885 92.1257 349.678C93.1382 349.471 94.1819 349.747 95.2567 350.508C96.3315 351.268 96.934 352.158 97.0641 353.178C97.1975 354.201 96.8537 355.292 96.0328 356.453ZM90.9284 352.843C90.3759 353.625 90.1081 354.318 90.1251 354.923C90.142 355.529 90.4455 356.04 91.0355 356.457C92.2187 357.294 93.3663 356.926 94.4781 355.354C95.5921 353.778 95.5608 352.574 94.3839 351.742C93.7939 351.325 93.208 351.209 92.6264 351.396C92.0469 351.579 91.4809 352.062 90.9284 352.843Z" fill="#EEEBE1"/>
<path d="M106.941 366.036L106.053 365.512L105.15 367.041L103.627 366.141L104.529 364.612L101.381 362.753L102.021 361.668L108.067 358.815L109.505 359.664L106.768 364.301L107.656 364.825L106.941 366.036ZM105.244 363.401L105.983 362.15C106.106 361.941 106.293 361.643 106.544 361.256C106.795 360.869 106.945 360.647 106.992 360.589L106.952 360.565C106.665 360.768 106.356 360.948 106.026 361.107L103.468 362.353L105.244 363.401Z" fill="#EEEBE1"/>
<path d="M115.748 372.6L114.144 371.812L117.921 364.123L122.328 366.288L121.672 367.624L118.869 366.247L117.895 368.229L120.503 369.511L119.85 370.841L117.241 369.56L115.748 372.6Z" fill="#EEEBE1"/>
<path d="M130.618 374.567C130.056 375.869 129.302 376.73 128.355 377.151C127.407 377.572 126.331 377.523 125.126 377.003C123.921 376.483 123.146 375.734 122.803 374.756C122.459 373.778 122.569 372.634 123.134 371.325C123.699 370.016 124.452 369.156 125.395 368.746C126.343 368.334 127.421 368.389 128.63 368.91C129.838 369.432 130.612 370.178 130.95 371.149C131.292 372.122 131.181 373.261 130.618 374.567ZM124.878 372.09C124.499 372.969 124.38 373.703 124.522 374.291C124.663 374.88 125.066 375.317 125.729 375.604C127.06 376.178 128.107 375.581 128.87 373.812C129.634 372.041 129.354 370.869 128.031 370.298C127.367 370.012 126.77 370.02 126.24 370.323C125.711 370.622 125.257 371.211 124.878 372.09Z" fill="#EEEBE1"/>
<path d="M138.09 381.875L136.391 381.25L137.668 377.78L134.484 376.608L133.207 380.078L131.503 379.451L134.46 371.411L136.164 372.038L135.005 375.189L138.189 376.361L139.348 373.21L141.048 373.835L138.09 381.875Z" fill="#EEEBE1"/>
<path d="M144.921 384L144.894 376.97L144.844 376.954C144.519 378.284 144.29 379.168 144.157 379.606L143.003 383.419L141.449 382.948L143.932 374.75L146.299 375.466L146.34 382.324L146.374 382.334L150.331 376.688L152.697 377.404L150.214 385.603L148.594 385.112L149.769 381.232C149.824 381.048 149.89 380.838 149.966 380.6C150.046 380.363 150.265 379.735 150.622 378.717L150.572 378.701L146.513 384.482L144.921 384Z" fill="#EEEBE1"/>
<path d="M161.461 383.855C161.13 385.234 160.534 386.211 159.672 386.788C158.811 387.364 157.742 387.499 156.465 387.193C155.189 386.887 154.298 386.281 153.792 385.376C153.286 384.471 153.2 383.326 153.533 381.939C153.865 380.553 154.461 379.577 155.32 379.012C156.183 378.444 157.255 378.314 158.535 378.621C159.815 378.928 160.705 379.531 161.204 380.431C161.707 381.331 161.793 382.472 161.461 383.855ZM155.382 382.395C155.158 383.326 155.167 384.069 155.407 384.625C155.647 385.181 156.118 385.543 156.821 385.712C158.23 386.05 159.16 385.283 159.609 383.41C160.06 381.534 159.584 380.427 158.182 380.091C157.48 379.922 156.893 380.032 156.422 380.421C155.952 380.807 155.605 381.465 155.382 382.395Z" fill="#EEEBE1"/>
<path d="M175.145 388.709L174.125 388.552L173.854 390.306L172.105 390.036L172.377 388.281L168.763 387.722L168.956 386.477L173.513 381.585L175.163 381.84L174.34 387.162L175.359 387.319L175.145 388.709ZM172.592 386.891L172.814 385.455C172.851 385.216 172.914 384.87 173.004 384.417C173.093 383.965 173.15 383.703 173.173 383.631L173.126 383.624C172.935 383.919 172.715 384.201 172.468 384.471L170.553 386.576L172.592 386.891Z" fill="#EEEBE1"/>
<path d="M185.757 391.539L183.975 391.402L184.631 382.861L189.527 383.237L189.413 384.721L186.299 384.481L186.13 386.684L189.027 386.907L188.914 388.385L186.016 388.162L185.757 391.539Z" fill="#EEEBE1"/>
<path d="M200.297 387.85C200.258 389.268 199.877 390.347 199.153 391.09C198.429 391.832 197.411 392.185 196.099 392.149C194.787 392.113 193.79 391.705 193.108 390.924C192.426 390.143 192.105 389.04 192.144 387.615C192.183 386.19 192.564 385.112 193.288 384.381C194.015 383.647 195.037 383.298 196.353 383.334C197.669 383.37 198.664 383.777 199.338 384.553C200.016 385.33 200.336 386.429 200.297 387.85ZM194.047 387.679C194.021 388.636 194.183 389.361 194.533 389.855C194.883 390.349 195.419 390.606 196.141 390.626C197.59 390.666 198.34 389.723 198.393 387.798C198.446 385.869 197.752 384.885 196.311 384.845C195.589 384.825 195.037 385.055 194.657 385.533C194.277 386.007 194.073 386.722 194.047 387.679Z" fill="#EEEBE1"/>
<path d="M209.946 391.866L208.136 391.916L208.035 388.22L204.643 388.313L204.745 392.009L202.929 392.058L202.694 383.495L204.51 383.445L204.602 386.802L207.993 386.709L207.901 383.352L209.711 383.303L209.946 391.866Z" fill="#EEEBE1"/>
<path d="M217.076 391.307L214.445 384.787L214.392 384.792C214.583 386.148 214.698 387.053 214.738 387.509L215.079 391.478L213.462 391.618L212.728 383.083L215.191 382.871L217.773 389.223L217.808 389.22L219.389 382.509L221.852 382.297L222.587 390.832L220.899 390.977L220.552 386.938C220.535 386.747 220.518 386.527 220.501 386.278C220.487 386.028 220.458 385.364 220.412 384.286L220.359 384.29L218.734 391.164L217.076 391.307Z" fill="#EEEBE1"/>
<path d="M232.384 385.037C232.588 386.441 232.396 387.57 231.81 388.425C231.224 389.279 230.281 389.801 228.982 389.99C227.683 390.179 226.631 389.947 225.826 389.294C225.021 388.641 224.515 387.61 224.311 386.199C224.106 384.788 224.297 383.66 224.885 382.817C225.476 381.969 226.423 381.451 227.726 381.262C229.029 381.072 230.079 381.303 230.876 381.953C231.677 382.602 232.179 383.63 232.384 385.037ZM226.197 385.936C226.334 386.883 226.618 387.571 227.047 387.998C227.476 388.425 228.048 388.586 228.763 388.482C230.197 388.274 230.776 387.217 230.499 385.311C230.222 383.401 229.37 382.55 227.943 382.758C227.228 382.862 226.724 383.181 226.431 383.717C226.137 384.25 226.059 384.989 226.197 385.936Z" fill="#EEEBE1"/>
<path d="M246.892 384.472L245.887 384.703L246.286 386.433L244.561 386.831L244.163 385.101L240.6 385.922L240.317 384.694L242.735 378.461L244.362 378.086L245.571 383.333L246.576 383.101L246.892 384.472ZM243.847 383.73L243.521 382.314C243.466 382.078 243.397 381.734 243.313 381.28C243.228 380.826 243.183 380.562 243.178 380.487L243.132 380.498C243.063 380.842 242.964 381.186 242.835 381.528L241.837 384.194L243.847 383.73Z" fill="#EEEBE1"/>
<path d="M257.796 383.163L256.091 383.697L253.533 375.521L258.219 374.055L258.664 375.475L255.683 376.408L256.343 378.516L259.116 377.648L259.559 379.063L256.785 379.931L257.796 383.163Z" fill="#EEEBE1"/>
<path d="M269.932 374.346C270.422 375.677 270.468 376.821 270.071 377.779C269.674 378.736 268.86 379.442 267.628 379.895C266.396 380.348 265.319 380.339 264.396 379.866C263.473 379.394 262.766 378.489 262.274 377.151C261.781 375.813 261.736 374.671 262.137 373.724C262.54 372.772 263.359 372.069 264.595 371.615C265.83 371.16 266.905 371.168 267.819 371.64C268.737 372.109 269.441 373.011 269.932 374.346ZM264.065 376.505C264.395 377.403 264.815 378.016 265.323 378.346C265.831 378.675 266.424 378.715 267.102 378.465C268.462 377.965 268.81 376.811 268.145 375.003C267.479 373.192 266.47 372.536 265.117 373.033C264.439 373.283 264.011 373.7 263.835 374.285C263.658 374.867 263.734 375.606 264.065 376.505Z" fill="#EEEBE1"/>
<path d="M280.381 374.496L278.719 375.214L277.254 371.819L274.139 373.163L275.604 376.558L273.936 377.277L270.543 369.411L272.211 368.692L273.541 371.775L276.656 370.431L275.326 367.348L276.988 366.631L280.381 374.496Z" fill="#EEEBE1"/>
<path d="M286.796 371.333L281.936 366.254L281.889 366.278C282.569 367.466 283.012 368.265 283.217 368.673L285.006 372.233L283.556 372.962L279.709 365.308L281.918 364.197L286.671 369.14L286.703 369.124L285.682 362.305L287.892 361.195L291.738 368.849L290.225 369.609L288.405 365.986C288.319 365.815 288.221 365.617 288.113 365.392C288.007 365.165 287.734 364.56 287.291 363.575L287.244 363.599L288.283 370.586L286.796 371.333Z" fill="#EEEBE1"/>
<path d="M298.688 359.834C299.398 361.062 299.639 362.181 299.411 363.192C299.184 364.204 298.502 365.038 297.366 365.695C296.23 366.352 295.167 366.527 294.177 366.219C293.187 365.912 292.335 365.141 291.621 363.906C290.908 362.672 290.668 361.554 290.901 360.553C291.136 359.546 291.823 358.713 292.963 358.055C294.102 357.396 295.163 357.22 296.144 357.528C297.129 357.834 297.977 358.603 298.688 359.834ZM293.276 362.963C293.755 363.792 294.273 364.325 294.83 364.562C295.387 364.8 295.978 364.738 296.603 364.376C297.858 363.651 298.003 362.454 297.04 360.787C296.074 359.116 294.967 358.642 293.719 359.363C293.094 359.725 292.744 360.209 292.671 360.816C292.595 361.419 292.797 362.135 293.276 362.963Z" fill="#EEEBE1"/>
<path d="M311.952 353.927L311.105 354.515L312.116 355.974L310.662 356.983L309.651 355.524L306.646 357.607L305.929 356.572L305.863 349.886L307.235 348.935L310.303 353.36L311.151 352.772L311.952 353.927ZM308.849 354.368L308.021 353.174C307.883 352.975 307.691 352.68 307.444 352.291C307.198 351.901 307.058 351.672 307.025 351.604L306.987 351.631C307.051 351.976 307.086 352.332 307.093 352.698L307.155 355.543L308.849 354.368Z" fill="#EEEBE1"/>
<path d="M326.415 344.591L325.067 345.764L319.445 339.301L323.149 336.078L324.126 337.201L321.77 339.25L323.22 340.917L325.412 339.01L326.385 340.128L324.193 342.036L326.415 344.591Z" fill="#EEEBE1"/>
<path d="M333.995 331.645C334.977 332.668 335.478 333.698 335.499 334.734C335.52 335.771 335.057 336.743 334.11 337.653C333.164 338.562 332.173 338.985 331.138 338.923C330.104 338.861 329.092 338.316 328.105 337.287C327.117 336.259 326.617 335.231 326.605 334.203C326.592 333.169 327.061 332.197 328.01 331.285C328.959 330.373 329.947 329.949 330.974 330.014C332.003 330.076 333.01 330.62 333.995 331.645ZM329.486 335.977C330.149 336.667 330.779 337.061 331.377 337.158C331.974 337.256 332.534 337.055 333.055 336.554C334.1 335.55 333.956 334.354 332.622 332.965C331.285 331.573 330.097 331.376 329.057 332.375C328.536 332.875 328.312 333.429 328.386 334.036C328.456 334.639 328.823 335.286 329.486 335.977Z" fill="#EEEBE1"/>
<path d="M343.627 327.592L342.392 328.915L339.689 326.393L337.375 328.874L340.078 331.396L338.839 332.724L332.576 326.88L333.815 325.552L336.27 327.843L338.584 325.362L336.129 323.071L337.364 321.747L343.627 327.592Z" fill="#EEEBE1"/>
<path d="M348.235 322.12L341.745 319.418L341.712 319.458C342.811 320.274 343.537 320.828 343.889 321.119L346.956 323.663L345.92 324.912L339.326 319.444L340.904 317.541L347.241 320.161L347.263 320.134L343.593 314.297L345.171 312.394L351.765 317.862L350.685 319.166L347.563 316.577C347.416 316.455 347.247 316.313 347.058 316.15C346.87 315.985 346.376 315.54 345.576 314.815L345.543 314.856L349.297 320.839L348.235 322.12Z" fill="#EEEBE1"/>
<path d="M354.515 306.816C355.657 307.656 356.327 308.585 356.525 309.603C356.722 310.62 356.432 311.658 355.655 312.716C354.877 313.773 353.974 314.36 352.944 314.475C351.914 314.59 350.824 314.226 349.675 313.381C348.526 312.537 347.858 311.609 347.67 310.599C347.481 309.582 347.777 308.544 348.556 307.483C349.336 306.422 350.237 305.836 351.259 305.725C352.284 305.61 353.369 305.974 354.515 306.816ZM350.812 311.854C351.584 312.421 352.272 312.701 352.877 312.695C353.483 312.69 353.999 312.396 354.427 311.813C355.286 310.645 354.939 309.491 353.387 308.351C351.832 307.208 350.628 307.217 349.775 308.379C349.347 308.961 349.221 309.545 349.397 310.13C349.569 310.712 350.041 311.287 350.812 311.854Z" fill="#EEEBE1"/>
<path d="M364.296 296.085L363.756 296.963L365.268 297.893L364.34 299.401L362.828 298.47L360.912 301.584L359.84 300.924L357.097 294.826L357.972 293.404L362.558 296.226L363.099 295.348L364.296 296.085ZM361.631 297.733L360.393 296.971C360.187 296.844 359.893 296.652 359.51 296.394C359.128 296.135 358.908 295.982 358.851 295.933L358.827 295.973C359.024 296.264 359.199 296.576 359.352 296.908L360.55 299.49L361.631 297.733Z" fill="#EEEBE1"/>
<path d="M373.8 281.729L373.036 283.345L365.293 279.68L367.393 275.241L368.738 275.878L367.402 278.701L369.399 279.646L370.642 277.019L371.982 277.654L370.739 280.28L373.8 281.729Z" fill="#EEEBE1"/>
<path d="M375.55 266.831C376.86 267.374 377.732 268.116 378.166 269.057C378.601 269.998 378.567 271.075 378.065 272.288C377.563 273.5 376.825 274.286 375.852 274.644C374.88 275.002 373.735 274.908 372.417 274.362C371.1 273.816 370.23 273.075 369.806 272.138C369.38 271.197 369.419 270.118 369.923 268.901C370.426 267.685 371.161 266.901 372.128 266.549C373.095 266.193 374.236 266.287 375.55 266.831ZM373.157 272.607C374.041 272.974 374.776 273.082 375.363 272.931C375.949 272.781 376.381 272.372 376.658 271.705C377.212 270.366 376.6 269.328 374.821 268.591C373.038 267.852 371.871 268.148 371.319 269.48C371.043 270.148 371.06 270.745 371.37 271.271C371.677 271.795 372.273 272.241 373.157 272.607Z" fill="#EEEBE1"/>
<path d="M382.747 259.253L382.147 260.961L378.659 259.735L377.534 262.936L381.022 264.162L380.42 265.876L372.339 263.035L372.941 261.321L376.108 262.435L377.233 259.234L374.065 258.121L374.666 256.412L382.747 259.253Z" fill="#EEEBE1"/>
<path d="M384.772 252.392L377.744 252.52L377.729 252.57C379.064 252.876 379.951 253.092 380.39 253.218L384.22 254.318L383.772 255.878L375.538 253.514L376.22 251.137L383.076 250.996L383.085 250.962L377.382 247.088L378.064 244.711L386.298 247.075L385.831 248.703L381.934 247.584C381.75 247.531 381.538 247.468 381.299 247.395C381.061 247.319 380.43 247.109 379.407 246.767L379.392 246.818L385.231 250.792L384.772 252.392Z" fill="#EEEBE1"/>
<path d="M384.387 235.854C385.77 236.165 386.757 236.747 387.346 237.6C387.935 238.453 388.085 239.52 387.798 240.8C387.51 242.081 386.917 242.981 386.02 243.5C385.123 244.019 383.978 244.122 382.587 243.809C381.196 243.496 380.212 242.915 379.634 242.064C379.054 241.209 378.908 240.139 379.196 238.855C379.485 237.571 380.075 236.672 380.967 236.16C381.86 235.644 383 235.542 384.387 235.854ZM383.016 241.954C383.95 242.164 384.693 242.144 385.245 241.896C385.797 241.648 386.153 241.171 386.311 240.466C386.629 239.052 385.848 238.134 383.969 237.712C382.087 237.289 380.987 237.78 380.671 239.187C380.513 239.892 380.632 240.477 381.028 240.942C381.42 241.407 382.082 241.744 383.016 241.954Z" fill="#EEEBE1"/>
<path d="M389.043 222.1L388.9 223.121L390.658 223.367L390.413 225.12L388.655 224.874L388.149 228.495L386.901 228.321L381.943 223.835L382.174 222.181L387.507 222.927L387.65 221.905L389.043 222.1ZM387.262 224.679L385.823 224.478C385.583 224.444 385.236 224.386 384.783 224.303C384.329 224.22 384.066 224.167 383.994 224.145L383.988 224.192C384.285 224.379 384.57 224.595 384.844 224.838L386.977 226.722L387.262 224.679Z" fill="#EEEBE1"/>
<path d="M391.99 205.138L391.938 206.924L383.375 206.673L383.519 201.765L385.007 201.809L384.915 204.931L387.123 204.995L387.209 202.09L388.69 202.134L388.605 205.039L391.99 205.138Z" fill="#EEEBE1"/>
<path d="M387.617 190.788C389.035 190.76 390.131 191.089 390.907 191.777C391.683 192.465 392.084 193.465 392.11 194.777C392.136 196.089 391.775 197.104 391.028 197.823C390.28 198.541 389.194 198.914 387.768 198.943C386.343 198.971 385.248 198.642 384.484 197.954C383.716 197.262 383.319 196.258 383.293 194.942C383.267 193.626 383.625 192.612 384.369 191.902C385.113 191.188 386.195 190.816 387.617 190.788ZM387.742 197.039C388.699 197.019 389.416 196.823 389.893 196.451C390.37 196.078 390.601 195.53 390.587 194.807C390.558 193.358 389.58 192.653 387.655 192.692C385.726 192.73 384.776 193.47 384.804 194.911C384.819 195.634 385.074 196.174 385.569 196.531C386.061 196.889 386.785 197.058 387.742 197.039Z" fill="#EEEBE1"/>
<path d="M391.17 180.959L391.306 182.764L387.619 183.04L387.872 186.424L391.559 186.147L391.695 187.959L383.153 188.599L383.017 186.788L386.365 186.537L386.111 183.153L382.763 183.404L382.628 181.599L391.17 180.959Z" fill="#EEEBE1"/>
<path d="M390.274 173.862L383.887 176.799L383.894 176.851C385.239 176.596 386.138 176.438 386.591 176.377L390.54 175.848L390.756 177.456L382.265 178.595L381.937 176.144L388.16 173.264L388.155 173.229L381.377 171.968L381.049 169.518L389.539 168.379L389.764 170.058L385.745 170.597C385.555 170.622 385.336 170.649 385.088 170.679C384.839 170.704 384.178 170.765 383.103 170.862L383.11 170.914L390.053 172.212L390.274 173.862Z" fill="#EEEBE1"/>
<path d="M383.287 158.867C384.679 158.597 385.815 158.734 386.697 159.28C387.579 159.825 388.145 160.741 388.395 162.03C388.645 163.318 388.463 164.38 387.849 165.216C387.235 166.051 386.229 166.605 384.829 166.876C383.429 167.148 382.294 167.01 381.424 166.463C380.549 165.912 379.987 164.991 379.736 163.699C379.485 162.406 379.665 161.347 380.277 160.52C380.888 159.689 381.891 159.138 383.287 158.867ZM384.478 165.005C385.417 164.822 386.09 164.507 386.496 164.058C386.903 163.609 387.037 163.03 386.899 162.32C386.623 160.897 385.54 160.37 383.649 160.737C381.755 161.104 380.945 161.996 381.22 163.411C381.357 164.12 381.701 164.608 382.25 164.876C382.796 165.144 383.538 165.187 384.478 165.005Z" fill="#EEEBE1"/>
<path d="M382.034 144.4L382.313 145.393L384.022 144.913L384.5 146.617L382.791 147.097L383.78 150.617L382.567 150.958L376.226 148.838L375.775 147.23L380.959 145.774L380.68 144.781L382.034 144.4ZM381.437 147.477L380.038 147.87C379.805 147.936 379.464 148.022 379.015 148.127C378.566 148.233 378.304 148.291 378.23 148.299L378.242 148.345C378.59 148.397 378.938 148.48 379.286 148.593L381.995 149.463L381.437 147.477Z" fill="#EEEBE1"/>
<path d="M377.929 127.68L378.598 129.337L370.654 132.543L368.817 127.989L370.197 127.432L371.366 130.329L373.414 129.502L372.327 126.807L373.702 126.252L374.789 128.947L377.929 127.68Z" fill="#EEEBE1"/>
<path d="M368.168 116.29C369.456 115.696 370.592 115.558 371.579 115.876C372.565 116.195 373.333 116.95 373.884 118.142C374.434 119.333 374.511 120.408 374.115 121.366C373.718 122.324 372.873 123.102 371.578 123.7C370.284 124.298 369.149 124.435 368.173 124.111C367.192 123.785 366.426 123.025 365.874 121.83C365.322 120.635 365.244 119.563 365.64 118.614C366.035 117.661 366.878 116.887 368.168 116.29ZM370.79 121.966C371.659 121.565 372.237 121.097 372.524 120.564C372.812 120.031 372.804 119.437 372.501 118.781C371.893 117.465 370.715 117.211 368.967 118.019C367.215 118.829 366.642 119.887 367.246 121.196C367.549 121.852 367.999 122.244 368.597 122.373C369.19 122.503 369.922 122.367 370.79 121.966Z" fill="#EEEBE1"/>
<path d="M367.48 105.86L368.329 107.46L365.062 109.192L366.652 112.19L369.918 110.457L370.769 112.062L363.201 116.076L362.35 114.471L365.316 112.898L363.727 109.901L360.761 111.474L359.913 109.874L367.48 105.86Z" fill="#EEEBE1"/>
<path d="M363.813 99.7198L359.14 104.973L359.168 105.018C360.298 104.244 361.058 103.739 361.448 103.502L364.853 101.432L365.696 102.819L358.375 107.268L357.092 105.155L361.637 100.02L361.619 99.9904L354.904 101.555L353.62 99.4415L360.941 94.9927L361.82 96.4399L358.355 98.5456C358.191 98.645 358.002 98.758 357.786 98.8845C357.568 99.0076 356.987 99.3291 356.041 99.849L356.068 99.894L362.949 98.2977L363.813 99.7198Z" fill="#EEEBE1"/>
<path d="M351.398 88.7879C352.564 87.982 353.661 87.6518 354.687 87.7974C355.713 87.9431 356.599 88.5558 357.345 89.6358C358.091 90.7158 358.351 91.7615 358.123 92.773C357.896 93.7845 357.196 94.6954 356.023 95.5057C354.85 96.3161 353.755 96.6452 352.738 96.4929C351.716 96.3396 350.831 95.7214 350.083 94.6382C349.335 93.5551 349.075 92.5121 349.303 91.5092C349.53 90.5032 350.228 89.5961 351.398 88.7879ZM354.95 93.9322C355.738 93.3882 356.228 92.8292 356.42 92.2549C356.612 91.6807 356.502 91.0963 356.092 90.5017C355.268 89.3092 354.064 89.2603 352.48 90.3548C350.892 91.4516 350.508 92.593 351.327 93.779C351.738 94.3736 352.248 94.6833 352.859 94.7079C353.466 94.7347 354.163 94.4761 354.95 93.9322Z" fill="#EEEBE1"/>
<path d="M344.447 76.0383L345.101 76.8359L346.474 75.7103L347.595 77.0788L346.222 78.2044L348.54 81.0321L347.566 81.8308L340.907 82.4329L339.849 81.1414L344.013 77.7274L343.359 76.9299L344.447 76.0383ZM345.135 79.096L344.011 80.0173C343.824 80.1708 343.546 80.3861 343.177 80.6633C342.808 80.9404 342.591 81.098 342.526 81.1359L342.556 81.1722C342.895 81.0809 343.247 81.0172 343.612 80.9811L346.442 80.6911L345.135 79.096Z" fill="#EEEBE1"/>
<path d="M333.981 62.3699L335.259 63.6199L329.268 69.7429L325.758 66.3086L326.799 65.2449L329.031 67.4292L330.576 65.8503L328.499 63.8176L329.536 62.758L331.613 64.7907L333.981 62.3699Z" fill="#EEEBE1"/>
<path d="M320.47 55.8531C321.411 54.7919 322.397 54.2095 323.428 54.1059C324.46 54.0022 325.466 54.3857 326.449 55.2564C327.431 56.127 327.932 57.0806 327.953 58.117C327.974 59.1535 327.512 60.2053 326.566 61.2723C325.62 62.3393 324.636 62.9202 323.612 63.0151C322.583 63.1103 321.576 62.7213 320.591 61.8481C319.606 60.9748 319.104 60.024 319.087 58.9957C319.066 57.9647 319.527 56.9172 320.47 55.8531ZM325.149 60.0003C325.784 59.2841 326.126 58.6242 326.175 58.0208C326.225 57.4173 325.979 56.8759 325.438 56.3965C324.354 55.4352 323.173 55.6751 321.895 57.1163C320.616 58.5604 320.515 59.7606 321.594 60.7167C322.134 61.1961 322.704 61.3749 323.303 61.253C323.899 61.1341 324.514 60.7165 325.149 60.0003Z" fill="#EEEBE1"/>
<path d="M315.658 46.5743L317.077 47.6994L314.779 50.5965L317.438 52.7045L319.735 49.8074L321.158 50.9361L315.836 57.6485L314.412 56.5198L316.498 53.889L313.84 51.781L311.754 54.4118L310.336 53.2868L315.658 46.5743Z" fill="#EEEBE1"/>
<path d="M309.834 42.421L307.662 49.1071L307.705 49.1374C308.429 47.9757 308.923 47.2077 309.186 46.8336L311.474 43.5723L312.803 44.5048L307.882 51.5167L305.858 50.096L307.962 43.5692L307.933 43.549L302.41 47.6756L300.386 46.2549L305.307 39.2431L306.693 40.216L304.364 43.5349C304.254 43.6915 304.125 43.8711 303.979 44.0735C303.829 44.2736 303.425 44.8014 302.767 45.657L302.81 45.6873L308.472 41.4649L309.834 42.421Z" fill="#EEEBE1"/>
<path d="M294.077 37.3878C294.822 36.1815 295.694 35.4392 296.692 35.1609C297.691 34.8826 298.748 35.0884 299.865 35.7785C300.981 36.4685 301.638 37.3224 301.836 38.34C302.034 39.3577 301.758 40.4729 301.008 41.6858C300.259 42.8987 299.388 43.6394 298.396 43.9077C297.398 44.1773 296.339 43.9661 295.219 43.274C294.1 42.5819 293.443 41.7307 293.25 40.7205C293.054 39.7082 293.329 38.5973 294.077 37.3878ZM299.395 40.6747C299.898 39.8606 300.122 39.152 300.068 38.5489C300.013 37.9459 299.679 37.4544 299.064 37.0745C297.831 36.3125 296.709 36.7507 295.696 38.3889C294.682 40.0305 294.788 41.2302 296.014 41.988C296.629 42.3679 297.221 42.4467 297.79 42.2244C298.357 42.0054 298.892 41.4888 299.395 40.6747Z" fill="#EEEBE1"/>
<path d="M282.597 28.4981L283.516 28.9665L284.322 27.3846L285.898 28.1883L285.092 29.7701L288.35 31.4305L287.778 32.5529L281.92 35.7754L280.432 35.0171L282.877 30.2194L281.958 29.7511L282.597 28.4981ZM284.454 31.023L283.794 32.3177C283.684 32.5335 283.515 32.8423 283.289 33.2441C283.062 33.6459 282.927 33.8772 282.882 33.938L282.924 33.9593C283.198 33.7395 283.495 33.54 283.815 33.3608L286.291 31.9596L284.454 31.023Z" fill="#EEEBE1"/>
<path d="M267.527 20.1758L269.199 20.8084L266.167 28.8204L261.575 27.0823L262.102 25.6904L265.022 26.7958L265.804 24.7298L263.086 23.7011L263.611 22.3146L266.329 23.3433L267.527 20.1758Z" fill="#EEEBE1"/>
<path d="M252.538 19.6264C252.973 18.277 253.643 17.348 254.546 16.8394C255.449 16.3307 256.525 16.2781 257.774 16.6816C259.023 17.0851 259.865 17.7573 260.3 18.6983C260.735 19.6393 260.733 20.7882 260.295 22.145C259.857 23.5017 259.188 24.4289 258.288 24.9264C257.384 25.4265 256.305 25.4741 255.053 25.0694C253.8 24.6647 252.959 23.9949 252.531 23.06C252.098 22.124 252.101 20.9794 252.538 19.6264ZM258.487 21.5484C258.781 20.6377 258.83 19.896 258.633 19.3234C258.436 18.7508 257.994 18.3534 257.306 18.1313C255.927 17.6857 254.942 18.3792 254.35 20.2118C253.757 22.0481 254.146 23.1878 255.517 23.6309C256.205 23.8531 256.799 23.7883 257.298 23.4365C257.796 23.0885 258.193 22.4591 258.487 21.5484Z" fill="#EEEBE1"/>
<path d="M244.407 13.0583L246.158 13.5197L245.216 17.0949L248.496 17.9595L249.438 14.3843L251.195 14.8472L249.012 23.1309L247.256 22.6679L248.111 19.4213L244.83 18.5567L243.975 21.8034L242.224 21.3419L244.407 13.0583Z" fill="#EEEBE1"/>
<path d="M237.407 11.5895L238.099 18.5855L238.15 18.596C238.348 17.2411 238.492 16.3397 238.583 15.8917L239.371 11.9861L240.962 12.3074L239.267 20.7044L236.843 20.215L236.152 13.3925L236.118 13.3855L232.714 19.3811L230.29 18.8917L231.985 10.4947L233.645 10.8299L232.842 14.8044C232.805 14.992 232.759 15.208 232.706 15.4522C232.649 15.6958 232.49 16.3413 232.231 17.3888L232.283 17.3992L235.776 11.2601L237.407 11.5895Z" fill="#EEEBE1"/>
<path d="M220.953 13.3003C221.152 11.8963 221.653 10.8666 222.456 10.2111C223.259 9.55556 224.311 9.31989 225.61 9.50406C226.91 9.68824 227.854 10.2068 228.443 11.0596C229.033 11.9125 229.227 13.0447 229.027 14.4564C228.827 15.8681 228.327 16.8959 227.525 17.5398C226.719 18.187 225.665 18.4183 224.361 18.2336C223.058 18.0488 222.115 17.5325 221.533 16.6846C220.947 15.8362 220.754 14.7081 220.953 13.3003ZM227.144 14.1776C227.278 13.23 227.199 12.4909 226.907 11.9604C226.616 11.4298 226.112 11.1138 225.396 11.0124C223.962 10.8091 223.109 11.6608 222.839 13.5675C222.568 15.4781 223.146 16.5345 224.574 16.7368C225.289 16.8382 225.863 16.6729 226.295 16.241C226.726 15.813 227.009 15.1251 227.144 14.1776Z" fill="#EEEBE1"/>
<path d="M206.872 9.76389L207.901 9.82428L208.005 8.05193L209.772 8.15556L209.668 9.9279L213.318 10.142L213.244 11.3996L209.171 16.7014L207.504 16.6036L207.819 11.2281L206.789 11.1677L206.872 9.76389ZM209.585 11.3317L209.5 12.7824C209.486 13.0241 209.456 13.3745 209.409 13.8335C209.363 14.2925 209.332 14.5587 209.316 14.6321L209.362 14.6349C209.525 14.3236 209.717 14.0218 209.938 13.7295L211.644 11.4525L209.585 11.3317Z" fill="#EEEBE1"/>
</svg>
