<svg width="481" height="481" viewBox="0 0 481 481" fill="none" xmlns="http://www.w3.org/2000/svg">
<path fill-rule="evenodd" clip-rule="evenodd" d="M240.237 451.003C356.059 451.003 449.951 357.111 449.951 241.29C449.951 216.962 445.809 193.602 438.191 171.877V103.5C465.181 142.374 481 189.59 481 240.5C481 373.324 373.324 481 240.5 481C107.676 481 0 373.324 0 240.5C0 189.288 16.0067 141.815 43.2899 102.81V169.07C35.031 191.585 30.523 215.911 30.523 241.29C30.523 357.111 124.415 451.003 240.237 451.003Z" fill="url(#paint0_linear)"/>
<path d="M53.3911 240.5C53.3911 137.163 137.163 53.391 240.5 53.391V53.391C343.838 53.391 427.609 137.163 427.609 240.5V240.5C427.609 343.837 343.838 427.609 240.5 427.609V427.609C137.163 427.609 53.3911 343.837 53.3911 240.5V240.5Z" fill="#708B96"/>
<path fill-rule="evenodd" clip-rule="evenodd" d="M258.462 314.934C258.462 314.934 258.462 314.934 258.462 314.934V323.202H322.828V300.001H291.043C310.167 285.512 322.454 262.988 322.454 237.693C322.454 193.982 285.762 158.546 240.5 158.546C195.238 158.546 158.546 193.982 158.546 237.693C158.546 262.988 170.833 285.512 189.957 300.001H158.172V323.202H222.538V322.828H222.537V292.018C199.085 284.636 182.122 263.188 182.122 237.88C182.122 206.466 208.259 180.999 240.5 180.999C272.741 180.999 298.878 206.466 298.878 237.88C298.878 263.189 281.915 284.636 258.462 292.018V314.934Z" fill="white"/>
<defs>
<linearGradient id="paint0_linear" x1="-401.798" y1="240.5" x2="909.374" y2="240.5" gradientUnits="userSpaceOnUse">
<stop stop-color="#708B96"/>
<stop offset="1" stop-color="#F7FBE7"/>
</linearGradient>
</defs>
</svg>
