<svg width="311" height="311" viewBox="0 0 311 311" fill="none" xmlns="http://www.w3.org/2000/svg">
<path d="M0 155.5C0 69.6197 69.6197 0 155.5 0C241.38 0 311 69.6197 311 155.5C311 241.38 241.38 311 155.5 311C69.6197 311 0 241.38 0 155.5Z" fill="#708B96"/>
<path fill-rule="evenodd" clip-rule="evenodd" d="M170.428 217.359V224.231H223.92V204.949H197.504C213.398 192.908 223.609 174.189 223.609 153.167C223.609 116.84 193.116 87.391 155.5 87.391C117.884 87.391 87.3909 116.84 87.3909 153.167C87.3909 174.189 97.602 192.908 113.495 204.949H87.08V224.231H140.572L140.572 223.92V198.315C121.081 192.18 106.984 174.356 106.984 153.323C106.984 127.215 128.705 106.051 155.5 106.051C182.295 106.051 204.016 127.215 204.016 153.323C204.016 174.356 189.918 192.18 170.428 198.315L170.428 217.359Z" fill="white"/>
</svg>
